# Blender v3.1.2 OBJ File: ''
# www.blender.org
mtllib Saturn V_4_3.mtl
o LEM_Fairing.002_Cylinder.018
v -3.236591 0.013283 -0.643783
v -3.285031 -0.001770 -0.020924
v -3.297936 0.013283 -0.020922
v -0.643798 0.013283 -3.236579
v -0.020938 -0.001770 -3.285020
v -0.641280 -0.001770 -3.223922
v -3.236591 0.013283 -0.643783
v -1.806068 6.504402 -0.748083
v -3.048802 0.013283 -1.262840
v -2.743850 0.013283 -1.833367
v -1.625418 6.504402 -1.086055
v -1.382305 6.504402 -1.382291
v -2.333452 0.013283 -2.333438
v -1.086070 6.504402 -1.625405
v -1.833382 0.013283 -2.743836
v -0.748098 6.504402 -1.806055
v -1.262855 0.013283 -3.048789
v -0.643798 0.013283 -3.236579
v -0.381376 6.504402 -1.917299
v -3.297936 0.013283 -0.020922
v -1.917312 6.504402 -0.381362
v -3.048802 0.013283 -1.262840
v -3.223934 -0.001770 -0.641265
v -2.743850 0.013283 -1.833367
v -3.036879 -0.001770 -1.257902
v -2.333452 0.013283 -2.333438
v -2.733119 -0.001770 -1.826198
v -1.833382 0.013283 -2.743836
v -2.324327 -0.001770 -2.324313
v -1.262855 0.013283 -3.048789
v -1.826212 -0.001770 -2.733106
v -1.257917 -0.001770 -3.036867
v -0.020937 6.504402 -1.952799
v -0.020936 0.013283 -3.297925
v -3.267564 -0.001770 -0.020924
v -1.883030 6.504402 -0.374543
v -1.917858 6.504402 -0.020923
v -1.773776 6.504402 -0.734707
v -1.917312 6.504402 -0.381362
v -1.883030 6.504402 -0.374543
v -1.596356 6.504402 -1.066636
v -1.806068 6.504402 -0.748083
v -1.382305 6.504402 -1.382291
v -1.625418 6.504402 -1.086055
v -1.066651 6.504402 -1.596342
v -1.357589 6.504402 -1.357575
v -0.734722 6.504402 -1.773762
v -1.086070 6.504402 -1.625405
v -0.374557 6.504402 -1.883017
v -0.748098 6.504402 -1.806055
v -0.020937 6.504402 -1.917846
v -0.381376 6.504402 -1.917299
v -3.206802 -0.001770 -0.637858
v -3.285031 -0.001770 -0.020924
v -3.223934 -0.001770 -0.641265
v -0.637872 -0.001770 -3.206790
v -0.020938 -0.001770 -3.285020
v -0.020938 -0.001770 -3.267553
v -3.036879 -0.001770 -1.257902
v -3.020742 -0.001770 -1.251217
v -2.733119 -0.001770 -1.826198
v -2.718596 -0.001770 -1.816493
v -2.324327 -0.001770 -2.324313
v -2.311976 -0.001770 -2.311962
v -1.826212 -0.001770 -2.733106
v -1.816508 -0.001770 -2.718582
v -1.257917 -0.001770 -3.036867
v -1.251232 -0.001770 -3.020729
v -0.641280 -0.001770 -3.223922
v -1.917858 6.504402 -0.020923
v -1.952811 6.504402 -0.020922
v -0.637872 -0.001770 -3.206790
v -0.020937 6.504402 -1.917846
v -0.374557 6.504402 -1.883017
v -3.206802 -0.001770 -0.637858
v -1.773776 6.504402 -0.734707
v -3.020742 -0.001770 -1.251217
v -1.596356 6.504402 -1.066636
v -2.718596 -0.001770 -1.816493
v -1.357589 6.504402 -1.357575
v -2.311976 -0.001770 -2.311962
v -1.066651 6.504402 -1.596342
v -1.816508 -0.001770 -2.718582
v -0.734722 6.504402 -1.773762
v -1.251232 -0.001770 -3.020729
v -1.917858 6.504402 -0.020923
v -1.960998 6.514732 -0.021256
v -1.907537 6.512596 -0.020502
v -0.020937 6.504402 -1.952799
v -0.021456 0.009956 -3.310671
v -0.020936 0.013283 -3.297925
v -0.020937 6.504402 -1.917846
v -0.020593 -0.011887 -3.259107
v -0.020516 6.512596 -1.907524
v -3.259119 -0.011887 -0.020579
v -3.267564 -0.001770 -0.020924
v -0.021271 6.514732 -1.960986
v -1.952811 6.504402 -0.020922
v -3.310682 0.009956 -0.021442
v -0.021158 -0.013802 -3.290408
v -0.020938 -0.001770 -3.285020
v -3.297936 0.013283 -0.020922
v -3.290419 -0.013802 -0.021144
v -3.285031 -0.001770 -0.020924
v -0.020938 -0.001770 -3.267553
v -3.310682 0.009956 -0.021442
v -1.962115 6.514526 0.000015
v -1.960998 6.514732 -0.021256
v 0.000001 6.514526 -1.962102
v -0.021456 0.009956 -3.310671
v -0.021271 6.514732 -1.960986
v -3.310682 0.009956 -0.021442
v -3.291510 -0.013695 0.000015
v -3.311565 0.010033 0.000015
v 0.000001 -0.013695 -3.291499
v -0.021456 0.009956 -3.310671
v 0.000001 0.010033 -3.311554
v -1.960998 6.514732 -0.021256
v -1.908597 6.512856 0.000015
v -1.907537 6.512596 -0.020502
v 0.000001 6.512856 -1.908584
v -0.021271 6.514732 -1.960986
v -0.020516 6.512596 -1.907524
v -3.290419 -0.013802 -0.021144
v -3.260230 -0.012100 0.000015
v -3.291510 -0.013695 0.000015
v 0.000001 -0.012100 -3.260219
v -0.021158 -0.013802 -3.290408
v 0.000001 -0.013695 -3.291499
v -1.908597 6.512856 0.000015
v -3.259119 -0.011887 -0.020579
v -1.907537 6.512596 -0.020502
v -0.020593 -0.011887 -3.259107
v 0.000001 6.512856 -1.908584
v -0.020516 6.512596 -1.907524
v -3.311565 0.010033 0.000015
v -3.260230 -0.012100 0.000015
v -1.908597 6.512856 0.000015
v 0.000001 0.010033 -3.311554
v 0.000001 6.512856 -1.908584
v 0.000001 -0.012100 -3.260219
v -0.020936 0.013283 -3.297925
v -1.952811 6.504402 -0.020922
v -0.020937 6.504402 -1.952799
v -3.267564 -0.001770 -0.020924
v -0.020938 -0.001770 -3.267553
v -3.311565 0.010033 0.000015
v 0.000001 0.010033 -3.311554
v -3.290419 -0.013802 -0.021144
v -0.021158 -0.013802 -3.290408
v -1.962115 6.514526 0.000015
v 0.000001 6.514526 -1.962102
v -3.259119 -0.011887 -0.020579
v -0.020593 -0.011887 -3.259107
v -3.260230 -0.012100 0.000015
v 0.000001 -0.012100 -3.260219
v -1.962115 6.514526 0.000015
v -3.291510 -0.013695 0.000015
v 0.000001 -0.013695 -3.291499
v 0.000001 6.514526 -1.962102
vt 0.510406 0.804342
vt 0.500672 0.804020
vt 0.500672 0.803701
vt 0.570523 0.802223
vt 0.579937 0.800856
vt 0.570547 0.802529
vt 0.510406 0.804342
vt 0.520729 0.704236
vt 0.520427 0.805005
vt 0.530470 0.805262
vt 0.526689 0.704537
vt 0.532658 0.704596
vt 0.540517 0.805112
vt 0.538625 0.704414
vt 0.550553 0.804555
vt 0.544582 0.703990
vt 0.560560 0.803591
vt 0.570523 0.802223
vt 0.550518 0.703323
vt 0.500672 0.803701
vt 0.514790 0.703694
vt 0.520427 0.805005
vt 0.510370 0.804652
vt 0.530470 0.805262
vt 0.520397 0.805317
vt 0.540517 0.805112
vt 0.530453 0.805575
vt 0.550553 0.804555
vt 0.540513 0.805426
vt 0.560560 0.803591
vt 0.550561 0.804869
vt 0.560581 0.803904
vt 0.556058 0.702096
vt 0.579901 0.800548
vt 0.424458 0.709938
vt 0.446206 0.810667
vt 0.440762 0.811430
vt 0.520760 0.703684
vt 0.514790 0.703694
vt 0.514836 0.703158
vt 0.526698 0.703984
vt 0.520729 0.704236
vt 0.532658 0.704596
vt 0.526689 0.704537
vt 0.538589 0.703862
vt 0.532644 0.704044
vt 0.544523 0.703441
vt 0.538625 0.704414
vt 0.550420 0.702779
vt 0.544582 0.703990
vt 0.555884 0.701563
vt 0.550518 0.703323
vt 0.510359 0.804925
vt 0.500672 0.804020
vt 0.510370 0.804652
vt 0.570595 0.802794
vt 0.579937 0.800856
vt 0.579958 0.801124
vt 0.520397 0.805317
vt 0.520392 0.805590
vt 0.530453 0.805575
vt 0.530458 0.805849
vt 0.540513 0.805426
vt 0.540530 0.805699
vt 0.550561 0.804869
vt 0.550589 0.805141
vt 0.560581 0.803904
vt 0.560620 0.804175
vt 0.570547 0.802529
vt 0.509427 0.702562
vt 0.509313 0.703120
vt 0.493311 0.708605
vt 0.486504 0.811430
vt 0.481060 0.810667
vt 0.433955 0.708605
vt 0.452000 0.810088
vt 0.443821 0.707620
vt 0.457812 0.809740
vt 0.453719 0.707028
vt 0.463633 0.809624
vt 0.463633 0.706830
vt 0.469454 0.809740
vt 0.473547 0.707028
vt 0.475266 0.810088
vt 0.483445 0.707620
vt 0.509427 0.702562
vt 0.509109 0.703243
vt 0.509331 0.702342
vt 0.557604 0.703574
vt 0.604098 0.693050
vt 0.604234 0.693872
vt 0.652228 0.684862
vt 0.606522 0.692626
vt 0.652156 0.684052
vt 0.399672 0.685282
vt 0.451225 0.693593
vt 0.451009 0.694480
vt 0.555884 0.701563
vt 0.556257 0.702170
vt 0.556058 0.702096
vt 0.508327 0.705074
vt 0.454015 0.694032
vt 0.508581 0.704137
vt 0.604402 0.693470
vt 0.605307 0.692835
vt 0.605170 0.693335
vt 0.453674 0.694519
vt 0.452624 0.693809
vt 0.451500 0.694120
vt 0.452271 0.694288
vt 0.606289 0.693090
vt 0.454015 0.694032
vt 0.508738 0.703181
vt 0.508581 0.704137
vt 0.556581 0.702064
vt 0.604098 0.693050
vt 0.556743 0.702892
vt 0.454015 0.694032
vt 0.452801 0.692870
vt 0.454187 0.693078
vt 0.605138 0.692020
vt 0.604098 0.693050
vt 0.603934 0.692222
vt 0.509109 0.703243
vt 0.508980 0.702255
vt 0.509331 0.702342
vt 0.556272 0.701262
vt 0.556257 0.702170
vt 0.555958 0.701365
vt 0.452624 0.693809
vt 0.451401 0.692679
vt 0.452801 0.692870
vt 0.606355 0.691833
vt 0.605307 0.692835
vt 0.605138 0.692020
vt 0.398918 0.683257
vt 0.451225 0.693593
vt 0.398742 0.684171
vt 0.606522 0.692626
vt 0.652000 0.683257
vt 0.652156 0.684052
vt 0.454187 0.693078
vt 0.454168 0.692087
vt 0.508980 0.702255
vt 0.603934 0.692222
vt 0.556272 0.701262
vt 0.603848 0.691375
vt 0.579901 0.800548
vt 0.509313 0.703120
vt 0.556058 0.702096
vt 0.500681 0.804295
vt 0.502809 0.709938
vt 0.509313 0.703120
vt 0.556743 0.702892
vt 0.607291 0.693315
vt 0.398742 0.684171
vt 0.555958 0.701365
vt 0.454293 0.695074
vt 0.452791 0.694380
vt 0.605621 0.693247
vt 0.454187 0.693078
vt 0.603934 0.692222
vt 0.452624 0.693809
vt 0.605307 0.692835
vt 0.508738 0.703181
vt 0.556581 0.702064
vt 0.451225 0.693593
vt 0.606522 0.692626
vt 0.451401 0.692679
vt 0.606355 0.691833
vt 0.508738 0.703181
vt 0.453932 0.692590
vt 0.604101 0.691779
vt 0.556581 0.702064
vn -0.7446 -0.6509 -0.1481
vn -0.7571 -0.6490 -0.0746
vn -0.1481 -0.6509 -0.7446
vn -0.0746 -0.6491 -0.7571
vn -0.1480 -0.6506 -0.7448
vn -0.9604 0.2029 -0.1910
vn -0.9047 0.2029 -0.3747
vn -0.8142 0.2029 -0.5440
vn -0.6924 0.2029 -0.6924
vn -0.5440 0.2029 -0.8142
vn -0.3747 0.2029 -0.9047
vn -0.1910 0.2029 -0.9604
vn -0.9747 0.2020 -0.0960
vn -0.7014 -0.6509 -0.2905
vn -0.6312 -0.6509 -0.4218
vn -0.5368 -0.6509 -0.5368
vn -0.4218 -0.6509 -0.6312
vn -0.2905 -0.6508 -0.7014
vn -0.4216 -0.6508 -0.6315
vn -0.0960 0.2020 -0.9747
vn 0.9746 -0.2022 0.0960
vn 0.9603 -0.2031 0.1910
vn 0.0000 1.0000 0.0000
vn 0.0000 1.0000 -0.0005
vn 0.0000 -1.0000 0.0000
vn -0.0000 -1.0000 0.0005
vn 0.0000 -1.0000 0.0003
vn 0.0000 -1.0000 -0.0005
vn 0.1910 -0.2031 0.9603
vn 0.0960 -0.2022 0.9746
vn 0.9046 -0.2031 0.3747
vn 0.8141 -0.2031 0.5440
vn 0.6924 -0.2031 0.6924
vn 0.5440 -0.2031 0.8141
vn 0.3747 -0.2031 0.9046
vn 0.0312 0.0080 -0.9995
vn 0.0180 -0.0122 -0.9998
vn 0.0319 0.0112 -0.9994
vn -0.9997 -0.0194 0.0163
vn -0.9992 0.0047 0.0395
vn -0.9993 0.0039 0.0372
vn -0.9995 0.0080 0.0313
vn -0.9996 -0.0126 0.0258
vn -0.9994 0.0112 0.0319
vn 0.0258 -0.0126 -0.9996
vn 0.0238 -0.0086 -0.9997
vn -0.9998 -0.0122 0.0180
vn 0.0163 -0.0194 -0.9997
vn 0.0395 0.0047 -0.9992
vn -0.9998 0.0094 0.0151
vn -0.9999 0.0152 0.0070
vn 0.0372 0.0039 -0.9993
vn 0.0151 0.0094 -0.9998
vn 0.0070 0.0152 -0.9999
vn -0.9997 -0.0086 0.0238
vn -0.9783 0.2030 -0.0410
vn -0.9780 0.2029 -0.0494
vn -0.9779 0.2029 -0.0494
vn -0.0493 0.2029 -0.9780
vn -0.0410 0.2030 -0.9783
vn -0.7622 -0.6466 -0.0317
vn -0.7614 -0.6474 -0.0333
vn -0.7634 -0.6452 -0.0291
vn -0.0333 -0.6474 -0.7614
vn -0.0317 -0.6466 -0.7622
vn -0.0291 -0.6453 -0.7634
vn 0.0333 0.9994 0.0063
vn 0.0380 0.9993 -0.0058
vn 0.0401 0.9991 -0.0106
vn -0.0054 0.9993 0.0380
vn 0.0063 0.9994 0.0332
vn -0.0106 0.9991 0.0401
vn 0.0547 -0.9985 0.0022
vn 0.0573 -0.9984 -0.0015
vn 0.0509 -0.9987 0.0070
vn -0.0015 -0.9984 0.0573
vn 0.0022 -0.9985 0.0547
vn 0.0077 -0.9987 0.0509
vn 0.9778 -0.2026 0.0531
vn 0.9780 -0.2026 0.0507
vn 0.9778 -0.2027 0.0534
vn 0.0507 -0.2026 0.9780
vn 0.0531 -0.2026 0.9778
vn 0.0000 -0.0000 1.0000
vn 1.0000 0.0000 0.0000
vn -0.7601 -0.6488 -0.0359
vn -0.0359 -0.6488 -0.7601
vn 0.0312 0.9994 0.0113
vn 0.0113 0.9994 0.0312
vn 0.0612 -0.9981 -0.0071
vn -0.0070 -0.9981 0.0612
usemtl Saturn_V_Main.007
s 1
f 1/1/1 2/2/2 3/3/2
f 4/4/3 5/5/4 6/6/5
f 7/7/6 8/8/7 9/9/7
f 10/10/8 8/8/7 11/11/8
f 10/10/8 12/12/9 13/13/9
f 13/13/9 14/14/10 15/15/10
f 15/15/10 16/16/11 17/17/11
f 18/18/12 16/16/11 19/19/12
f 20/20/13 21/21/6 7/7/6
f 22/22/14 23/23/1 1/1/1
f 24/24/15 25/25/14 22/22/14
f 26/26/16 27/27/15 24/24/15
f 28/28/17 29/29/16 26/26/16
f 30/30/18 31/31/19 28/28/17
f 4/4/3 32/32/18 30/30/18
f 18/18/12 33/33/20 34/34/20
f 35/35/21 36/36/22 37/37/21
f 38/38/23 39/39/23 40/40/23
f 41/41/23 42/42/23 38/38/23
f 41/41/23 43/43/23 44/44/23
f 45/45/23 43/43/23 46/46/23
f 47/47/23 48/48/23 45/45/23
f 49/49/24 50/50/23 47/47/23
f 51/51/23 52/52/23 49/49/24
f 53/53/25 54/54/25 55/55/25
f 56/56/26 57/57/25 58/58/25
f 53/53/25 59/59/27 60/60/25
f 60/60/25 61/61/25 62/62/25
f 62/62/25 63/63/25 64/64/25
f 64/64/25 65/65/28 66/66/28
f 66/66/28 67/67/25 68/68/25
f 68/68/25 69/69/27 56/56/26
f 70/70/23 39/39/23 71/71/23
f 72/72/29 73/73/30 74/74/29
f 75/75/22 76/76/31 36/36/22
f 77/77/31 78/78/32 76/76/31
f 79/79/32 80/80/33 78/78/32
f 81/81/33 82/82/34 80/80/33
f 83/83/34 84/84/35 82/82/34
f 85/85/35 74/74/29 84/84/35
f 86/86/36 87/87/37 88/88/38
f 89/89/39 90/90/40 91/91/41
f 92/92/42 93/93/43 94/94/44
f 86/95/36 95/96/45 96/97/46
f 92/98/42 97/99/47 89/100/39
f 98/101/48 99/102/49 87/103/37
f 91/104/41 100/105/50 101/106/51
f 102/107/52 103/108/53 99/102/49
f 96/109/46 103/108/53 104/110/54
f 105/111/55 100/105/50 93/93/43
f 106/112/56 107/113/57 108/114/58
f 109/115/59 110/116/60 111/117/59
f 112/118/61 113/119/62 114/120/63
f 115/121/64 116/122/65 117/123/66
f 118/124/67 119/125/68 120/126/69
f 121/127/70 122/128/71 123/129/72
f 124/130/73 125/131/74 126/132/75
f 127/133/76 128/134/77 129/135/78
f 130/136/79 131/137/80 132/138/81
f 133/139/82 134/140/83 135/141/83
f 136/142/84 137/143/84 138/144/84
f 139/145/85 140/146/85 141/147/85
f 1/1/1 23/23/1 2/2/2
f 4/4/3 142/148/4 5/5/4
f 7/7/6 21/21/6 8/8/7
f 10/10/8 9/9/7 8/8/7
f 10/10/8 11/11/8 12/12/9
f 13/13/9 12/12/9 14/14/10
f 15/15/10 14/14/10 16/16/11
f 18/18/12 17/17/11 16/16/11
f 20/20/13 143/149/13 21/21/6
f 22/22/14 25/25/14 23/23/1
f 24/24/15 27/27/15 25/25/14
f 26/26/16 29/29/16 27/27/15
f 28/28/17 31/31/19 29/29/16
f 30/30/18 32/32/18 31/31/19
f 4/4/3 6/6/5 32/32/18
f 18/18/12 19/19/12 33/33/20
f 35/35/21 75/75/22 36/36/22
f 38/38/23 42/42/23 39/39/23
f 41/41/23 44/44/23 42/42/23
f 41/41/23 46/46/23 43/43/23
f 45/45/23 48/48/23 43/43/23
f 47/47/23 50/50/23 48/48/23
f 49/49/24 52/52/23 50/50/23
f 51/51/23 144/150/23 52/52/23
f 53/53/25 145/151/25 54/54/25
f 56/56/26 69/69/27 57/57/25
f 53/53/25 55/55/25 59/59/27
f 60/60/25 59/59/27 61/61/25
f 62/62/25 61/61/25 63/63/25
f 64/64/25 63/63/25 65/65/28
f 66/66/28 65/65/28 67/67/25
f 68/68/25 67/67/25 69/69/27
f 70/70/23 40/40/23 39/39/23
f 72/72/29 146/152/30 73/73/30
f 75/75/22 77/77/31 76/76/31
f 77/77/31 79/79/32 78/78/32
f 79/79/32 81/81/33 80/80/33
f 81/81/33 83/83/34 82/82/34
f 83/83/34 85/85/35 84/84/35
f 85/85/35 72/72/29 74/74/29
f 86/86/36 98/153/48 87/87/37
f 89/89/39 97/154/47 90/90/40
f 92/92/42 105/155/55 93/93/43
f 86/95/36 88/156/38 95/96/45
f 92/98/42 94/157/44 97/99/47
f 98/101/48 102/158/52 99/102/49
f 91/104/41 90/90/40 100/105/50
f 102/107/52 104/159/54 103/108/53
f 96/109/46 95/96/45 103/108/53
f 105/111/55 101/160/51 100/105/50
f 106/112/56 147/161/56 107/113/57
f 109/115/59 148/162/60 110/116/60
f 112/118/61 149/163/86 113/119/62
f 115/121/64 150/164/87 116/122/65
f 118/124/67 151/165/88 119/125/68
f 121/127/70 152/166/89 122/128/71
f 124/130/73 153/167/90 125/131/74
f 127/133/76 154/168/91 128/134/77
f 130/136/79 155/169/80 131/137/80
f 133/139/82 156/170/82 134/140/83
f 138/144/84 157/171/84 136/142/84
f 136/142/84 158/172/84 137/143/84
f 141/147/85 159/173/85 139/145/85
f 139/145/85 160/174/85 140/146/85
o LEM_Fairing_Hinge.002_Cylinder.001
v -2.643502 0.018944 -1.899333
v -1.889115 0.012947 -2.633256
v -1.899348 0.018944 -2.643488
v -2.629031 -0.001526 -1.884862
v -1.884877 -0.001526 -2.629017
v -1.889115 -0.015991 -2.633256
v -2.633269 -0.015991 -1.889101
v -1.899348 -0.021988 -2.643488
v -2.643502 -0.021988 -1.899333
v -1.909580 -0.015991 -2.653721
v -2.653735 -0.015991 -1.909566
v -1.913819 -0.001526 -2.657959
v -2.657973 -0.001526 -1.913804
v -1.909581 0.012947 -2.653721
v -2.633270 0.012947 -1.889100
v -2.653735 0.012947 -1.909565
vt 1.000000 1.000000
vt 0.875000 0.500000
vt 1.000000 0.500000
vt 0.750000 1.000000
vt 0.750000 0.500000
vt 0.625000 0.500000
vt 0.625000 1.000000
vt 0.500000 0.500000
vt 0.500000 1.000000
vt 0.375000 0.500000
vt 0.375000 1.000000
vt 0.250000 0.500000
vt 0.010000 0.250000
vt 0.250000 0.010000
vt 0.490000 0.250000
vt 0.250000 1.000000
vt 0.125000 0.500000
vt 0.000000 1.000000
vt 0.000000 0.500000
vt 0.580294 0.419706
vt 0.919706 0.419706
vt 0.919706 0.080294
vt 0.875000 1.000000
vt 0.419706 0.419706
vt 0.250000 0.490000
vt 0.080294 0.419706
vt 0.080294 0.080294
vt 0.419706 0.080294
vt 0.125000 1.000000
vt 0.750000 0.490000
vt 0.990000 0.250000
vt 0.750000 0.010000
vt 0.580294 0.080294
vt 0.510000 0.250000
vn -0.4457 0.7766 0.4454
vn 0.8339 0.5489 -0.0575
vn 0.4456 0.7764 -0.4456
vn 0.1033 -0.0001 0.9946
vn 0.9946 -0.0000 0.1039
vn 0.8339 -0.5490 -0.0575
vn -0.0574 -0.5486 0.8341
vn 0.4456 -0.7763 -0.4459
vn -0.4455 -0.7760 0.4464
vn 0.0575 -0.5490 -0.8339
vn -0.8339 -0.5490 0.0575
vn -0.1033 -0.0001 -0.9946
vn -0.9946 -0.0000 -0.1039
vn 0.0574 0.5489 -0.8339
vn -0.0575 0.5489 0.8339
vn -0.8339 0.5489 0.0575
usemtl None.006
s 1
f 161/175/92 162/176/93 163/177/94
f 162/176/93 164/178/95 165/179/96
f 164/178/95 166/180/97 165/179/96
f 167/181/98 168/182/99 166/180/97
f 169/183/100 170/184/101 168/182/99
f 171/185/102 172/186/103 170/184/101
f 173/187/104 169/188/100 164/189/95
f 173/190/104 174/191/105 172/186/103
f 174/191/105 161/192/92 163/193/94
f 174/194/105 162/195/93 166/196/97
f 161/175/92 175/197/106 162/176/93
f 162/176/93 175/197/106 164/178/95
f 164/178/95 167/181/98 166/180/97
f 167/181/98 169/183/100 168/182/99
f 169/183/100 171/185/102 170/184/101
f 171/185/102 173/190/104 172/186/103
f 164/189/95 175/198/106 161/199/92
f 161/199/92 176/200/107 173/187/104
f 173/187/104 171/201/102 169/188/100
f 169/188/100 167/202/98 164/189/95
f 164/189/95 161/199/92 173/187/104
f 173/190/104 176/203/107 174/191/105
f 174/191/105 176/203/107 161/192/92
f 174/194/105 163/204/94 162/195/93
f 162/195/93 165/205/96 166/196/97
f 166/196/97 168/206/99 174/194/105
f 168/206/99 170/207/101 174/194/105
f 170/207/101 172/208/103 174/194/105
