# Blender v3.1.2 OBJ File: ''
# www.blender.org
mtllib Saturn V_3.mtl
o Lunar_Module_Placeholder_Cube.013
v -0.813679 3.285172 0.877143
v -0.813679 1.657806 -0.877113
v -0.813679 1.657806 0.877143
v -0.813679 3.285172 -0.877113
v 0.813679 1.657806 -0.877113
v 0.813679 3.285172 -0.877113
v 0.813679 1.657806 0.877143
v 0.813679 3.285172 0.877143
v -2.108255 1.999802 0.706733
v -2.108255 0.647408 -0.706703
v -2.108255 0.647408 0.706733
v -2.108255 1.999802 -0.706703
v -0.813679 0.647408 -0.706703
v -0.813679 1.999802 -0.706703
v -0.813679 0.647408 0.706733
v -0.813679 1.999802 0.706733
v -0.813679 2.494148 0.706733
v -1.747970 2.494148 -0.706703
v -0.813679 2.494148 -0.706703
v -1.747970 2.494148 0.706733
v -0.813679 1.657806 1.066048
v -0.813679 0.030449 -1.066019
v -0.813679 0.030449 1.066047
v -0.813679 1.657806 -1.066018
v 0.813679 0.030449 -1.066019
v 0.813679 1.657806 -1.066018
v 0.813679 0.030449 1.066047
v 0.813679 1.657806 1.066048
v 1.983871 2.533394 0.412378
v 1.983871 2.874451 -0.706703
v 1.983871 2.874451 0.706733
v 1.983871 2.533394 -0.412349
v 0.813679 2.874451 -0.706703
v 0.813679 2.533394 0.412378
v 0.813679 2.874451 0.706733
v 0.813679 3.215500 -0.706702
v 1.983871 3.215500 0.706733
v 1.983871 3.215500 -0.706702
v 0.813679 2.197983 -0.412349
v 0.813679 2.197983 0.412378
v 1.485382 2.197983 -0.412349
v 1.485382 2.197983 0.412378
v 0.813679 2.533394 -0.412349
v 0.813679 3.215500 0.706733
v 1.694822 0.030449 -0.538822
v 1.722787 1.287361 0.000015
v 1.914005 0.030449 0.000014
v 1.080140 1.287361 -0.654390
v 1.104613 2.197983 -0.289876
v 1.534560 1.287361 -0.462720
v 1.694822 0.030449 0.538850
v 1.222533 2.197983 0.000015
v 1.534560 1.287361 0.462750
v 1.165667 0.030449 0.762044
v 1.080139 1.287361 0.654421
v 0.636513 0.030449 0.538850
v 1.104613 2.197983 0.289906
v 0.625719 1.287361 0.462750
v 0.417330 0.030449 0.000014
v 0.819931 2.197983 0.409983
v 0.625719 1.287361 -0.462719
v 0.636513 0.030449 -0.538822
v 0.535249 2.197983 0.289906
v 0.437492 1.287361 0.000015
v 1.165667 0.030449 -0.762015
v 0.535249 2.197983 -0.289876
v 0.819931 2.197983 -0.409952
v 0.417330 2.197983 0.000015
vt 0.625000 0.000000
vt 0.375000 0.250000
vt 0.375000 0.000000
vt 0.625000 0.250000
vt 0.375000 0.500000
vt 0.625000 0.500000
vt 0.375000 0.750000
vt 0.625000 0.750000
vt 0.375000 1.000000
vt 0.125000 0.750000
vt 0.125000 0.500000
vt 0.875000 0.500000
vt 0.625000 0.000000
vt 0.375000 0.250000
vt 0.375000 0.000000
vt 0.625000 0.250000
vt 0.375000 0.500000
vt 0.625000 0.500000
vt 0.375000 0.750000
vt 0.625000 0.750000
vt 0.375000 1.000000
vt 0.125000 0.750000
vt 0.125000 0.500000
vt 0.625000 0.750000
vt 0.875000 0.500000
vt 0.625000 0.500000
vt 0.625000 0.250000
vt 0.625000 1.000000
vt 0.625000 1.000000
vt 0.625000 0.000000
vt 0.375000 0.250000
vt 0.375000 0.000000
vt 0.625000 0.250000
vt 0.375000 0.500000
vt 0.625000 0.500000
vt 0.375000 0.750000
vt 0.625000 0.750000
vt 0.375000 1.000000
vt 0.125000 0.750000
vt 0.125000 0.500000
vt 0.875000 0.500000
vt 0.625000 0.000000
vt 0.500000 0.250000
vt 0.500000 0.000000
vt 0.625000 0.250000
vt 0.500000 0.500000
vt 0.625000 0.750000
vt 0.500000 0.750000
vt 0.500000 1.000000
vt 0.375000 0.500000
vt 0.125000 0.750000
vt 0.125000 0.500000
vt 0.625000 0.500000
vt 0.625000 0.750000
vt 0.875000 0.500000
vt 0.625000 0.250000
vt 0.625000 1.000000
vt 0.625000 1.000000
vt 0.625000 0.500000
vt 0.375000 1.000000
vt 0.375000 0.750000
vt 0.375000 0.250000
vt 0.375000 0.000000
vt 0.875000 0.500000
vt 0.750000 0.867145
vt 0.750000 0.500000
vt 1.000000 0.867145
vt 0.875000 1.000000
vt 0.875000 0.867145
vt 0.625000 0.500000
vt 0.750000 1.000000
vt 0.625000 0.867145
vt 0.500000 0.500000
vt 0.500000 0.867145
vt 0.375000 0.500000
vt 0.625000 1.000000
vt 0.375000 0.867145
vt 0.250000 0.500000
vt 0.500000 1.000000
vt 0.125000 0.867145
vt 0.125000 0.500000
vt 0.375000 1.000000
vt 0.250000 0.867145
vt 0.490000 0.250000
vt 0.080294 0.080294
vt 0.419706 0.080294
vt 0.000000 0.867145
vt 0.000000 0.500000
vt 0.125000 1.000000
vt 1.000000 0.500000
vt 0.000000 1.000000
vt 0.580294 0.080294
vt 0.510000 0.250000
vt 0.919706 0.080294
vt 0.625000 1.000000
vt 0.875000 0.750000
vt 0.875000 0.750000
vt 0.625000 0.000000
vt 0.625000 1.000000
vt 0.875000 0.750000
vt 0.875000 0.750000
vt 0.625000 0.000000
vt 1.000000 1.000000
vt 0.250000 1.000000
vt 0.419706 0.419706
vt 0.080294 0.419706
vt 0.250000 0.490000
vt 0.010000 0.250000
vt 0.250000 0.010000
vt 0.580294 0.419706
vt 0.750000 0.490000
vt 0.919706 0.419706
vt 0.990000 0.250000
vt 0.750000 0.010000
vn -0.5774 0.5774 0.5774
vn -0.5774 -0.5774 -0.5774
vn -0.5774 -0.5774 0.5774
vn -0.5774 0.5774 -0.5774
vn 0.5774 -0.5774 -0.5774
vn 0.5774 0.5774 -0.5774
vn 0.5774 -0.5774 0.5774
vn 0.5774 0.5774 0.5774
vn -0.7277 0.2371 0.6436
vn -0.7277 0.2371 -0.6436
vn 0.7071 0.0000 -0.7071
vn 0.7071 -0.0000 0.7071
vn -0.3564 0.7008 -0.6179
vn -0.3564 0.7008 0.6179
vn 0.7330 -0.5404 0.4132
vn 0.6364 -0.2688 -0.7230
vn 0.6364 -0.2688 0.7230
vn 0.7330 -0.5404 -0.4132
vn -0.6364 -0.2688 -0.7230
vn -0.7946 -0.2116 0.5691
vn -0.6364 -0.2688 0.7230
vn -0.5774 0.5774 -0.5773
vn 0.5774 0.5774 -0.5773
vn 0.2225 -0.7293 -0.6469
vn 0.2225 -0.7293 0.6469
vn -0.7946 -0.2116 -0.5691
vn 0.5859 -0.5797 -0.5662
vn 0.9511 0.3088 -0.0000
vn 0.8189 -0.5739 -0.0000
vn 0.0191 0.1762 -0.9842
vn 0.4201 0.7829 -0.4589
vn 0.6910 0.2745 -0.6687
vn 0.5859 -0.5797 0.5662
vn 0.5902 0.8072 0.0000
vn 0.6910 0.2745 0.6687
vn 0.0130 -0.5964 0.8026
vn 0.0191 0.1762 0.9842
vn -0.5538 -0.6163 0.5598
vn 0.4201 0.7829 0.4589
vn -0.6982 0.0538 0.7139
vn -0.7804 -0.6253 -0.0000
vn -0.0510 0.7172 0.6950
vn -0.6982 0.0538 -0.7139
vn -0.5538 -0.6163 -0.5598
vn -0.5672 0.6495 0.5064
vn -1.0000 -0.0031 -0.0000
vn 0.0130 -0.5964 -0.8026
vn -0.5672 0.6495 -0.5064
vn -0.0510 0.7172 -0.6950
vn -0.7822 0.6230 -0.0000
usemtl None.007
s 1
f 1/1/1 2/2/2 3/3/3
f 4/4/4 5/5/5 2/2/2
f 6/6/6 7/7/7 5/5/5
f 8/8/8 3/9/3 7/7/7
f 5/5/5 3/10/3 2/11/2
f 4/12/4 8/8/8 6/6/6
f 9/13/9 10/14/2 11/15/3
f 12/16/10 13/17/5 10/14/2
f 14/18/11 15/19/7 13/17/5
f 16/20/12 11/21/3 15/19/7
f 13/17/5 11/22/3 10/23/2
f 14/18/11 17/24/8 16/20/12
f 18/25/13 17/24/8 19/26/6
f 9/13/9 18/27/13 12/16/10
f 16/20/12 20/28/14 9/29/9
f 14/18/11 18/27/13 19/26/6
f 21/30/1 22/31/2 23/32/3
f 24/33/4 25/34/5 22/31/2
f 26/35/6 27/36/7 25/34/5
f 28/37/8 23/38/3 27/36/7
f 25/34/5 23/39/3 22/40/2
f 24/41/4 28/37/8 26/35/6
f 29/42/15 30/43/16 31/44/17
f 32/45/18 33/46/19 30/43/16
f 33/46/19 34/47/20 35/48/21
f 34/47/20 31/49/17 35/48/21
f 36/50/22 37/51/8 38/52/23
f 34/47/20 39/53/2 40/54/3
f 41/55/24 40/54/3 39/53/2
f 29/42/15 41/56/24 32/45/18
f 34/47/20 42/57/25 29/58/15
f 43/59/26 41/56/24 39/53/2
f 35/48/21 37/60/8 44/61/1
f 33/46/19 44/61/1 36/50/22
f 30/43/16 36/50/22 38/62/23
f 31/44/17 38/62/23 37/63/8
f 45/64/27 46/65/28 47/66/29
f 48/67/30 49/68/31 50/69/32
f 46/65/28 51/70/33 47/66/29
f 50/69/32 52/71/34 46/65/28
f 53/72/35 54/73/36 51/70/33
f 52/71/34 53/72/35 46/65/28
f 55/74/37 56/75/38 54/73/36
f 57/76/39 55/74/37 53/72/35
f 58/77/40 59/78/41 56/75/38
f 60/79/42 58/77/40 55/74/37
f 59/78/41 61/80/43 62/81/44
f 63/82/45 64/83/46 58/77/40
f 52/84/34 63/85/45 57/86/39
f 62/81/44 48/87/30 65/88/47
f 64/83/46 66/89/48 61/80/43
f 65/90/47 50/69/32 45/64/27
f 61/80/43 67/91/49 48/87/30
f 56/92/38 59/93/41 51/94/33
f 1/1/1 4/4/4 2/2/2
f 4/4/4 6/6/6 5/5/5
f 6/6/6 8/8/8 7/7/7
f 8/8/8 1/95/1 3/9/3
f 5/5/5 7/7/7 3/10/3
f 4/12/4 1/96/1 8/8/8
f 9/13/9 12/16/10 10/14/2
f 12/16/10 14/18/11 13/17/5
f 14/18/11 16/20/12 15/19/7
f 16/20/12 9/29/9 11/21/3
f 13/17/5 15/19/7 11/22/3
f 14/18/11 19/26/6 17/24/8
f 18/25/13 20/97/14 17/24/8
f 9/13/9 20/98/14 18/27/13
f 16/20/12 17/24/8 20/28/14
f 14/18/11 12/16/10 18/27/13
f 21/30/1 24/33/4 22/31/2
f 24/33/4 26/35/6 25/34/5
f 26/35/6 28/37/8 27/36/7
f 28/37/8 21/99/1 23/38/3
f 25/34/5 27/36/7 23/39/3
f 24/41/4 21/100/1 28/37/8
f 29/42/15 32/45/18 30/43/16
f 32/45/18 43/59/26 33/46/19
f 33/46/19 43/59/26 34/47/20
f 34/47/20 29/58/15 31/49/17
f 36/50/22 44/61/1 37/51/8
f 34/47/20 43/59/26 39/53/2
f 41/55/24 42/101/25 40/54/3
f 29/42/15 42/102/25 41/56/24
f 34/47/20 40/54/3 42/57/25
f 43/59/26 32/45/18 41/56/24
f 35/48/21 31/49/17 37/60/8
f 33/46/19 35/48/21 44/61/1
f 30/43/16 33/46/19 36/50/22
f 31/44/17 30/43/16 38/62/23
f 45/64/27 50/69/32 46/65/28
f 48/67/30 67/103/49 49/68/31
f 46/65/28 53/72/35 51/70/33
f 50/69/32 49/68/31 52/71/34
f 53/72/35 55/74/37 54/73/36
f 52/71/34 57/76/39 53/72/35
f 55/74/37 58/77/40 56/75/38
f 57/76/39 60/79/42 55/74/37
f 58/77/40 64/83/46 59/78/41
f 60/79/42 63/82/45 58/77/40
f 59/78/41 64/83/46 61/80/43
f 63/82/45 68/104/50 64/83/46
f 52/84/34 49/105/31 66/106/48
f 49/105/31 67/107/49 66/106/48
f 66/106/48 68/108/50 52/84/34
f 68/108/50 63/85/45 52/84/34
f 63/85/45 60/109/42 57/86/39
f 62/81/44 61/80/43 48/87/30
f 64/83/46 68/104/50 66/89/48
f 65/90/47 48/67/30 50/69/32
f 61/80/43 66/89/48 67/91/49
f 62/110/44 65/111/47 45/112/27
f 45/112/27 47/113/29 62/110/44
f 47/113/29 51/94/33 59/93/41
f 62/110/44 47/113/29 59/93/41
f 51/94/33 54/114/36 56/92/38
