# Blender v3.1.2 OBJ File: ''
# www.blender.org
mtllib Saturn V_4_2.mtl
o LEM_Fairing_Hinge.003_Cylinder.001
v -1.899347 0.018944 2.643516
v -2.633269 0.012947 1.889129
v -2.643502 0.018944 1.899362
v -1.884876 -0.001526 2.629045
v -2.629031 -0.001526 1.884890
v -2.633270 -0.015991 1.889129
v -1.889115 -0.015991 2.633283
v -2.643502 -0.021988 1.899362
v -1.899347 -0.021988 2.643516
v -2.653735 -0.015991 1.909594
v -1.909580 -0.015991 2.653749
v -2.657973 -0.001526 1.913833
v -1.913818 -0.001526 2.657987
v -2.653734 0.012947 1.909595
v -1.889115 0.012947 2.633284
v -1.909580 0.012947 2.653749
vt 1.000000 1.000000
vt 0.875000 0.500000
vt 1.000000 0.500000
vt 0.750000 1.000000
vt 0.750000 0.500000
vt 0.625000 0.500000
vt 0.625000 1.000000
vt 0.500000 0.500000
vt 0.500000 1.000000
vt 0.375000 0.500000
vt 0.375000 1.000000
vt 0.250000 0.500000
vt 0.010000 0.250000
vt 0.250000 0.010000
vt 0.490000 0.250000
vt 0.250000 1.000000
vt 0.125000 0.500000
vt 0.000000 1.000000
vt 0.000000 0.500000
vt 0.580294 0.419706
vt 0.919706 0.419706
vt 0.919706 0.080294
vt 0.875000 1.000000
vt 0.419706 0.419706
vt 0.250000 0.490000
vt 0.080294 0.419706
vt 0.080294 0.080294
vt 0.419706 0.080294
vt 0.125000 1.000000
vt 0.750000 0.490000
vt 0.990000 0.250000
vt 0.750000 0.010000
vt 0.580294 0.080294
vt 0.510000 0.250000
vn 0.4457 0.7764 0.4456
vn -0.0575 0.5489 -0.8339
vn -0.4457 0.7764 -0.4456
vn 0.9946 -0.0001 -0.1037
vn 0.1033 -0.0001 -0.9946
vn -0.0575 -0.5490 -0.8339
vn 0.8339 -0.5490 0.0575
vn -0.4456 -0.7764 -0.4456
vn 0.4457 -0.7764 0.4456
vn -0.8339 -0.5490 -0.0575
vn 0.0575 -0.5490 0.8339
vn -0.9946 -0.0001 0.1033
vn -0.1033 -0.0001 0.9946
vn -0.8339 0.5489 -0.0570
vn 0.8340 0.5489 0.0570
vn 0.0574 0.5489 0.8339
usemtl None.004
s 1
f 1/1/1 2/2/2 3/3/3
f 2/2/2 4/4/4 5/5/5
f 4/4/4 6/6/6 5/5/5
f 7/7/7 8/8/8 6/6/6
f 9/9/9 10/10/10 8/8/8
f 11/11/11 12/12/12 10/10/10
f 13/13/13 9/14/9 4/15/4
f 13/16/13 14/17/14 12/12/12
f 14/17/14 1/18/1 3/19/3
f 14/20/14 2/21/2 6/22/6
f 1/1/1 15/23/15 2/2/2
f 2/2/2 15/23/15 4/4/4
f 4/4/4 7/7/7 6/6/6
f 7/7/7 9/9/9 8/8/8
f 9/9/9 11/11/11 10/10/10
f 11/11/11 13/16/13 12/12/12
f 4/15/4 15/24/15 1/25/1
f 1/25/1 16/26/16 13/13/13
f 13/13/13 11/27/11 9/14/9
f 9/14/9 7/28/7 4/15/4
f 4/15/4 1/25/1 13/13/13
f 13/16/13 16/29/16 14/17/14
f 14/17/14 16/29/16 1/18/1
f 14/20/14 3/30/3 2/21/2
f 2/21/2 5/31/5 6/22/6
f 6/22/6 8/32/8 14/20/14
f 8/32/8 10/33/10 14/20/14
f 10/33/10 12/34/12 14/20/14
o LEM_Fairing.000_Cylinder.018
v -0.643794 0.013283 3.236604
v -0.020935 -0.001770 3.285045
v -0.020934 0.013283 3.297950
v -3.236590 0.013283 0.643811
v -3.285031 -0.001770 0.020952
v -3.223933 -0.001770 0.641294
v -0.643794 0.013283 3.236604
v -0.748095 6.504402 1.806083
v -1.262852 0.013283 3.048816
v -1.833378 0.013283 2.743863
v -1.086068 6.504402 1.625433
v -1.382303 6.504402 1.382320
v -2.333450 0.013283 2.333466
v -1.625417 6.504402 1.086085
v -2.743847 0.013283 1.833396
v -1.806067 6.504402 0.748112
v -3.048800 0.013283 1.262869
v -3.236590 0.013283 0.643811
v -1.917311 6.504402 0.381391
v -0.020934 0.013283 3.297950
v -0.381374 6.504402 1.917327
v -1.262852 0.013283 3.048816
v -0.641277 -0.001770 3.223947
v -1.833378 0.013283 2.743863
v -1.257913 -0.001770 3.036893
v -2.333450 0.013283 2.333466
v -1.826209 -0.001770 2.733133
v -2.743847 0.013283 1.833396
v -2.324324 -0.001770 2.324341
v -3.048800 0.013283 1.262869
v -2.733117 -0.001770 1.826226
v -3.036878 -0.001770 1.257930
v -1.952811 6.504402 0.020951
v -3.297936 0.013283 0.020950
v -0.020935 -0.001770 3.267578
v -0.374555 6.504402 1.883045
v -0.020935 6.504402 1.917873
v -0.734719 6.504402 1.773791
v -0.381374 6.504402 1.917327
v -0.374555 6.504402 1.883045
v -1.066649 6.504402 1.596371
v -0.748095 6.504402 1.806083
v -1.382303 6.504402 1.382320
v -1.086068 6.504402 1.625433
v -1.596354 6.504402 1.066666
v -1.357587 6.504402 1.357604
v -1.773775 6.504402 0.734736
v -1.625417 6.504402 1.086085
v -1.883029 6.504402 0.374572
v -1.806067 6.504402 0.748112
v -1.917858 6.504402 0.020952
v -1.917311 6.504402 0.381391
v -0.637869 -0.001770 3.206816
v -0.020935 -0.001770 3.285045
v -0.641277 -0.001770 3.223947
v -3.206801 -0.001770 0.637886
v -3.285031 -0.001770 0.020952
v -3.267564 -0.001770 0.020952
v -1.257913 -0.001770 3.036893
v -1.251229 -0.001770 3.020755
v -1.826209 -0.001770 2.733133
v -1.816505 -0.001770 2.718610
v -2.324324 -0.001770 2.324341
v -2.311973 -0.001770 2.311989
v -2.733117 -0.001770 1.826226
v -2.718594 -0.001770 1.816522
v -3.036878 -0.001770 1.257930
v -3.020740 -0.001770 1.251246
v -3.223933 -0.001770 0.641294
v -0.020935 6.504402 1.917873
v -0.020935 6.504402 1.952826
v -3.206801 -0.001770 0.637886
v -1.917858 6.504402 0.020952
v -1.883029 6.504402 0.374572
v -0.637869 -0.001770 3.206816
v -0.734719 6.504402 1.773791
v -1.251229 -0.001770 3.020755
v -1.066649 6.504402 1.596371
v -1.816505 -0.001770 2.718610
v -1.357587 6.504402 1.357604
v -2.311973 -0.001770 2.311989
v -1.596354 6.504402 1.066666
v -2.718594 -0.001770 1.816522
v -1.773775 6.504402 0.734736
v -3.020740 -0.001770 1.251246
v -0.020935 6.504402 1.917873
v -0.021268 6.514732 1.961013
v -0.020514 6.512596 1.907552
v -1.952811 6.504402 0.020951
v -3.310682 0.009956 0.021470
v -3.297936 0.013283 0.020950
v -1.917858 6.504402 0.020952
v -3.259119 -0.011887 0.020607
v -1.907536 6.512596 0.020531
v -0.020590 -0.011887 3.259132
v -0.020935 -0.001770 3.267578
v -1.960998 6.514732 0.021285
v -0.020935 6.504402 1.952826
v -0.021453 0.009956 3.310696
v -3.290419 -0.013802 0.021172
v -3.285031 -0.001770 0.020952
v -0.020934 0.013283 3.297950
v -0.021155 -0.013802 3.290433
v -0.020935 -0.001770 3.285045
v -3.267564 -0.001770 0.020952
v -0.021453 0.009956 3.310696
v 0.000003 6.514526 1.962130
v -0.021268 6.514732 1.961013
v -1.962115 6.514526 0.000014
v -3.310682 0.009956 0.021470
v -1.960998 6.514732 0.021285
v -0.021453 0.009956 3.310696
v 0.000004 -0.013695 3.291524
v 0.000004 0.010033 3.311579
v -3.291510 -0.013695 0.000013
v -3.310682 0.009956 0.021470
v -3.311565 0.010033 0.000013
v -0.021268 6.514732 1.961013
v 0.000003 6.512856 1.908612
v -0.020514 6.512596 1.907552
v -1.908597 6.512856 0.000014
v -1.960998 6.514732 0.021285
v -1.907536 6.512596 0.020531
v -0.021155 -0.013802 3.290433
v 0.000004 -0.012100 3.260244
v 0.000004 -0.013695 3.291524
v -3.260230 -0.012100 0.000013
v -3.290419 -0.013802 0.021172
v -3.291510 -0.013695 0.000013
v 0.000003 6.512856 1.908612
v -0.020590 -0.011887 3.259132
v -0.020514 6.512596 1.907552
v -3.259119 -0.011887 0.020607
v -1.908597 6.512856 0.000014
v -1.907536 6.512596 0.020531
v 0.000004 0.010033 3.311579
v 0.000004 -0.012100 3.260244
v 0.000003 6.512856 1.908612
v -3.311565 0.010033 0.000013
v -1.908597 6.512856 0.000014
v -3.260230 -0.012100 0.000013
v -3.297936 0.013283 0.020950
v -0.020935 6.504402 1.952826
v -1.952811 6.504402 0.020951
v -0.020935 -0.001770 3.267578
v -3.267564 -0.001770 0.020952
v 0.000004 0.010033 3.311579
v -3.311565 0.010033 0.000013
v -0.021155 -0.013802 3.290433
v -3.290419 -0.013802 0.021172
v 0.000003 6.514526 1.962130
v -1.962115 6.514526 0.000014
v -0.020590 -0.011887 3.259132
v -3.259119 -0.011887 0.020607
v 0.000004 -0.012100 3.260244
v -3.260230 -0.012100 0.000013
v 0.000003 6.514526 1.962130
v 0.000004 -0.013695 3.291524
v -3.291510 -0.013695 0.000013
v -1.962115 6.514526 0.000014
vt 0.510406 0.804342
vt 0.500672 0.804020
vt 0.500672 0.803701
vt 0.570523 0.802223
vt 0.579937 0.800856
vt 0.570547 0.802529
vt 0.510406 0.804342
vt 0.520729 0.704236
vt 0.520427 0.805005
vt 0.530470 0.805262
vt 0.526689 0.704537
vt 0.532658 0.704596
vt 0.540517 0.805112
vt 0.538625 0.704414
vt 0.550553 0.804555
vt 0.544582 0.703990
vt 0.560560 0.803591
vt 0.570523 0.802223
vt 0.550518 0.703323
vt 0.500672 0.803701
vt 0.514790 0.703694
vt 0.520427 0.805005
vt 0.510370 0.804652
vt 0.530470 0.805262
vt 0.520397 0.805317
vt 0.540517 0.805112
vt 0.530453 0.805575
vt 0.550553 0.804555
vt 0.540513 0.805426
vt 0.560560 0.803591
vt 0.550561 0.804869
vt 0.560581 0.803904
vt 0.556058 0.702096
vt 0.579901 0.800548
vt 0.424458 0.709938
vt 0.446206 0.810667
vt 0.440762 0.811430
vt 0.520760 0.703684
vt 0.514790 0.703694
vt 0.514836 0.703158
vt 0.526698 0.703984
vt 0.520729 0.704236
vt 0.532658 0.704596
vt 0.526689 0.704537
vt 0.538589 0.703862
vt 0.532644 0.704044
vt 0.544523 0.703441
vt 0.538625 0.704414
vt 0.550420 0.702779
vt 0.544582 0.703990
vt 0.555884 0.701563
vt 0.550518 0.703323
vt 0.510359 0.804925
vt 0.500672 0.804020
vt 0.510370 0.804652
vt 0.570595 0.802794
vt 0.579937 0.800856
vt 0.579958 0.801124
vt 0.520397 0.805317
vt 0.520392 0.805590
vt 0.530453 0.805575
vt 0.530458 0.805849
vt 0.540513 0.805426
vt 0.540530 0.805699
vt 0.550561 0.804869
vt 0.550589 0.805141
vt 0.560581 0.803904
vt 0.560620 0.804175
vt 0.570547 0.802529
vt 0.509427 0.702562
vt 0.509313 0.703120
vt 0.493311 0.708605
vt 0.486504 0.811430
vt 0.481060 0.810667
vt 0.433955 0.708605
vt 0.452000 0.810088
vt 0.443821 0.707620
vt 0.457812 0.809740
vt 0.453719 0.707028
vt 0.463633 0.809624
vt 0.463633 0.706830
vt 0.469454 0.809740
vt 0.473547 0.707028
vt 0.475266 0.810088
vt 0.483445 0.707620
vt 0.509427 0.702562
vt 0.509109 0.703243
vt 0.509331 0.702342
vt 0.557604 0.703574
vt 0.604098 0.693050
vt 0.604234 0.693872
vt 0.652228 0.684862
vt 0.606522 0.692626
vt 0.652156 0.684052
vt 0.399672 0.685282
vt 0.451225 0.693593
vt 0.451009 0.694480
vt 0.555884 0.701563
vt 0.556257 0.702170
vt 0.556058 0.702096
vt 0.508327 0.705074
vt 0.454015 0.694032
vt 0.508581 0.704137
vt 0.604402 0.693470
vt 0.605307 0.692835
vt 0.605170 0.693335
vt 0.453674 0.694519
vt 0.452624 0.693809
vt 0.451500 0.694120
vt 0.452271 0.694288
vt 0.606289 0.693090
vt 0.454015 0.694032
vt 0.508738 0.703181
vt 0.508581 0.704137
vt 0.556581 0.702064
vt 0.604098 0.693050
vt 0.556743 0.702892
vt 0.454015 0.694032
vt 0.452801 0.692870
vt 0.454187 0.693078
vt 0.605138 0.692020
vt 0.604098 0.693050
vt 0.603934 0.692222
vt 0.509109 0.703243
vt 0.508980 0.702255
vt 0.509331 0.702342
vt 0.556272 0.701262
vt 0.556257 0.702170
vt 0.555958 0.701365
vt 0.452624 0.693809
vt 0.451401 0.692679
vt 0.452801 0.692870
vt 0.606355 0.691833
vt 0.605307 0.692835
vt 0.605138 0.692020
vt 0.398918 0.683257
vt 0.451225 0.693593
vt 0.398742 0.684171
vt 0.606522 0.692626
vt 0.652000 0.683257
vt 0.652156 0.684052
vt 0.454187 0.693078
vt 0.454168 0.692087
vt 0.508980 0.702255
vt 0.603934 0.692222
vt 0.556272 0.701262
vt 0.603848 0.691375
vt 0.579901 0.800548
vt 0.509313 0.703120
vt 0.556058 0.702096
vt 0.500681 0.804295
vt 0.502809 0.709938
vt 0.509313 0.703120
vt 0.556743 0.702892
vt 0.607291 0.693315
vt 0.398742 0.684171
vt 0.555958 0.701365
vt 0.454293 0.695074
vt 0.452791 0.694380
vt 0.605621 0.693247
vt 0.454187 0.693078
vt 0.603934 0.692222
vt 0.452624 0.693809
vt 0.605307 0.692835
vt 0.508738 0.703181
vt 0.556581 0.702064
vt 0.451225 0.693593
vt 0.606522 0.692626
vt 0.451401 0.692679
vt 0.606355 0.691833
vt 0.508738 0.703181
vt 0.453932 0.692590
vt 0.604101 0.691779
vt 0.556581 0.702064
vn -0.1481 -0.6509 0.7446
vn -0.0746 -0.6490 0.7571
vn -0.7446 -0.6509 0.1481
vn -0.7571 -0.6491 0.0746
vn -0.7445 -0.6509 0.1484
vn -0.1910 0.2029 0.9604
vn -0.3747 0.2029 0.9047
vn -0.5440 0.2029 0.8142
vn -0.6924 0.2029 0.6924
vn -0.8142 0.2029 0.5440
vn -0.9047 0.2029 0.3747
vn -0.9604 0.2029 0.1910
vn -0.0960 0.2020 0.9747
vn -0.2905 -0.6509 0.7014
vn -0.4218 -0.6509 0.6313
vn -0.5368 -0.6509 0.5368
vn -0.4218 -0.6509 0.6312
vn -0.6312 -0.6509 0.4218
vn -0.7014 -0.6509 0.2905
vn -0.9747 0.2020 0.0960
vn 0.0960 -0.2022 -0.9746
vn 0.1910 -0.2031 -0.9603
vn 0.0000 1.0000 0.0000
vn -0.0000 1.0000 0.0003
vn 0.0000 -1.0000 0.0000
vn -0.0000 -1.0000 0.0010
vn -0.0000 -1.0000 0.0003
vn -0.0000 -1.0000 0.0005
vn 0.9603 -0.2031 -0.1910
vn 0.9746 -0.2022 -0.0960
vn 0.3747 -0.2031 -0.9046
vn 0.5440 -0.2031 -0.8141
vn 0.6924 -0.2031 -0.6924
vn 0.8141 -0.2031 -0.5440
vn 0.9046 -0.2031 -0.3747
vn -0.9995 0.0080 -0.0312
vn -0.9998 -0.0121 -0.0180
vn -0.9994 0.0112 -0.0319
vn 0.0163 -0.0194 0.9997
vn 0.0395 0.0047 0.9992
vn 0.0372 0.0039 0.9993
vn 0.0312 0.0080 0.9995
vn 0.0258 -0.0126 0.9996
vn 0.0319 0.0112 0.9994
vn -0.9996 -0.0126 -0.0258
vn -0.9997 -0.0086 -0.0238
vn 0.0180 -0.0122 0.9998
vn -0.9997 -0.0194 -0.0162
vn -0.9992 0.0047 -0.0395
vn 0.0151 0.0094 0.9998
vn 0.0070 0.0152 0.9999
vn -0.9993 0.0039 -0.0371
vn -0.9998 0.0094 -0.0151
vn -0.9999 0.0151 -0.0070
vn 0.0238 -0.0086 0.9997
vn -0.0410 0.2030 0.9783
vn -0.0494 0.2029 0.9780
vn -0.0494 0.2029 0.9779
vn -0.9780 0.2029 0.0494
vn -0.9783 0.2030 0.0410
vn -0.9779 0.2029 0.0494
vn -0.0317 -0.6466 0.7622
vn -0.0333 -0.6474 0.7614
vn -0.0291 -0.6456 0.7631
vn -0.7614 -0.6474 0.0333
vn -0.7622 -0.6466 0.0317
vn -0.7634 -0.6453 0.0291
vn 0.0063 0.9994 -0.0333
vn -0.0054 0.9993 -0.0380
vn -0.0106 0.9991 -0.0401
vn 0.0380 0.9993 0.0054
vn 0.0333 0.9994 -0.0063
vn 0.0401 0.9991 0.0106
vn 0.0022 -0.9985 -0.0547
vn -0.0015 -0.9984 -0.0573
vn 0.0077 -0.9987 -0.0509
vn 0.0573 -0.9984 0.0015
vn 0.0547 -0.9985 -0.0019
vn 0.0509 -0.9987 -0.0070
vn 0.0531 -0.2026 -0.9778
vn 0.0507 -0.2026 -0.9780
vn 0.9780 -0.2026 -0.0507
vn 0.9778 -0.2026 -0.0531
vn 1.0000 0.0000 -0.0000
vn -0.0000 0.0000 -1.0000
vn 0.0000 -1.0000 0.0011
vn -0.0358 -0.6484 0.7604
vn -0.7601 -0.6488 0.0359
vn 0.0113 0.9994 -0.0312
vn 0.0312 0.9994 -0.0113
vn -0.0071 -0.9981 -0.0615
vn 0.0612 -0.9981 0.0071
usemtl Saturn_V_Main.005
s 1
f 17/35/17 18/36/18 19/37/18
f 20/38/19 21/39/20 22/40/21
f 23/41/22 24/42/23 25/43/23
f 26/44/24 24/42/23 27/45/24
f 26/44/24 28/46/25 29/47/25
f 29/47/25 30/48/26 31/49/26
f 31/49/26 32/50/27 33/51/27
f 34/52/28 32/50/27 35/53/28
f 36/54/29 37/55/22 23/41/22
f 38/56/30 39/57/17 17/35/17
f 40/58/31 41/59/30 38/56/30
f 42/60/32 43/61/33 40/58/31
f 44/62/34 45/63/32 42/60/32
f 46/64/35 47/65/34 44/62/34
f 20/38/19 48/66/35 46/64/35
f 34/52/28 49/67/36 50/68/36
f 51/69/37 52/70/38 53/71/37
f 54/72/39 55/73/39 56/74/39
f 57/75/39 58/76/40 54/72/39
f 57/75/39 59/77/39 60/78/39
f 61/79/39 59/77/39 62/80/39
f 63/81/39 64/82/39 61/79/39
f 65/83/40 66/84/39 63/81/39
f 67/85/39 68/86/39 65/83/40
f 69/87/41 70/88/42 71/89/41
f 72/90/41 73/91/41 74/92/41
f 69/87/41 75/93/43 76/94/44
f 76/94/44 77/95/41 78/96/41
f 78/96/41 79/97/43 80/98/41
f 80/98/41 81/99/41 82/100/41
f 82/100/41 83/101/41 84/102/41
f 84/102/41 85/103/41 72/90/41
f 86/104/39 55/73/39 87/105/39
f 88/106/45 89/107/46 90/108/45
f 91/109/38 92/110/47 52/70/38
f 93/111/47 94/112/48 92/110/47
f 95/113/48 96/114/49 94/112/48
f 97/115/49 98/116/50 96/114/49
f 99/117/50 100/118/51 98/116/50
f 101/119/51 90/108/45 100/118/51
f 102/120/52 103/121/53 104/122/54
f 105/123/55 106/124/56 107/125/57
f 108/126/58 109/127/59 110/128/60
f 102/129/52 111/130/61 112/131/62
f 108/132/58 113/133/63 105/134/55
f 114/135/64 115/136/65 103/137/53
f 107/138/57 116/139/66 117/140/67
f 118/141/68 119/142/69 115/136/65
f 112/143/62 119/142/69 120/144/70
f 121/145/71 116/139/66 109/127/59
f 122/146/72 123/147/73 124/148/74
f 125/149/75 126/150/76 127/151/77
f 128/152/78 129/153/79 130/154/80
f 131/155/81 132/156/82 133/157/83
f 134/158/84 135/159/85 136/160/86
f 137/161/87 138/162/88 139/163/89
f 140/164/90 141/165/91 142/166/92
f 143/167/93 144/168/94 145/169/95
f 146/170/96 147/171/97 148/172/96
f 149/173/98 150/174/99 151/175/99
f 152/176/100 153/177/100 154/178/100
f 155/179/101 156/180/101 157/181/101
f 17/35/17 39/57/17 18/36/18
f 20/38/19 158/182/20 21/39/20
f 23/41/22 37/55/22 24/42/23
f 26/44/24 25/43/23 24/42/23
f 26/44/24 27/45/24 28/46/25
f 29/47/25 28/46/25 30/48/26
f 31/49/26 30/48/26 32/50/27
f 34/52/28 33/51/27 32/50/27
f 36/54/29 159/183/29 37/55/22
f 38/56/30 41/59/30 39/57/17
f 40/58/31 43/61/33 41/59/30
f 42/60/32 45/63/32 43/61/33
f 44/62/34 47/65/34 45/63/32
f 46/64/35 48/66/35 47/65/34
f 20/38/19 22/40/21 48/66/35
f 34/52/28 35/53/28 49/67/36
f 51/69/37 91/109/38 52/70/38
f 54/72/39 58/76/40 55/73/39
f 57/75/39 60/78/39 58/76/40
f 57/75/39 62/80/39 59/77/39
f 61/79/39 64/82/39 59/77/39
f 63/81/39 66/84/39 64/82/39
f 65/83/40 68/86/39 66/84/39
f 67/85/39 160/184/39 68/86/39
f 69/87/41 161/185/102 70/88/42
f 72/90/41 85/103/41 73/91/41
f 69/87/41 71/89/41 75/93/43
f 76/94/44 75/93/43 77/95/41
f 78/96/41 77/95/41 79/97/43
f 80/98/41 79/97/43 81/99/41
f 82/100/41 81/99/41 83/101/41
f 84/102/41 83/101/41 85/103/41
f 86/104/39 56/74/39 55/73/39
f 88/106/45 162/186/46 89/107/46
f 91/109/38 93/111/47 92/110/47
f 93/111/47 95/113/48 94/112/48
f 95/113/48 97/115/49 96/114/49
f 97/115/49 99/117/50 98/116/50
f 99/117/50 101/119/51 100/118/51
f 101/119/51 88/106/45 90/108/45
f 102/120/52 114/187/64 103/121/53
f 105/123/55 113/188/63 106/124/56
f 108/126/58 121/189/71 109/127/59
f 102/129/52 104/190/54 111/130/61
f 108/132/58 110/191/60 113/133/63
f 114/135/64 118/192/68 115/136/65
f 107/138/57 106/124/56 116/139/66
f 118/141/68 120/193/70 119/142/69
f 112/143/62 111/130/61 119/142/69
f 121/145/71 117/194/67 116/139/66
f 122/146/72 163/195/72 123/147/73
f 125/149/75 164/196/76 126/150/76
f 128/152/78 165/197/103 129/153/79
f 131/155/81 166/198/104 132/156/82
f 134/158/84 167/199/105 135/159/85
f 137/161/87 168/200/106 138/162/88
f 140/164/90 169/201/107 141/165/91
f 143/167/93 170/202/108 144/168/94
f 146/170/96 171/203/97 147/171/97
f 149/173/98 172/204/98 150/174/99
f 154/178/100 173/205/100 152/176/100
f 152/176/100 174/206/100 153/177/100
f 157/181/101 175/207/101 155/179/101
f 155/179/101 176/208/101 156/180/101
