# Blender v3.1.2 OBJ File: 'Saturn V.blend'
# www.blender.org
mtllib Saturn V_4_1.mtl
o LEM_Fairing.002_Cylinder.018
v 0.000001 94.492126 -1.962117
v -3.236591 87.990883 -0.643797
v -3.048802 87.990883 -1.262854
v -2.743850 87.990883 -1.833381
v -2.333452 87.990883 -2.333452
v -1.833382 87.990883 -2.743850
v -1.262855 87.990883 -3.048803
v -0.643798 87.990883 -3.236593
v -1.883030 94.482002 -0.374558
v -1.773776 94.482002 -0.734722
v -1.596356 94.482002 -1.066651
v -1.357589 94.482002 -1.357590
v -1.066651 94.482002 -1.596357
v -0.734722 94.482002 -1.773777
v -0.374557 94.482002 -1.883032
v -3.206802 87.975830 -0.637872
v -3.020742 87.975830 -1.251231
v -2.718596 87.975830 -1.816507
v -2.311976 87.975830 -2.311976
v -1.816508 87.975830 -2.718596
v -1.251232 87.975830 -3.020743
v -0.637872 87.975830 -3.206804
v -3.311565 87.987633 0.000001
v -3.310682 87.987556 -0.021456
v -1.960998 94.492332 -0.021271
v -1.962115 94.492126 0.000000
v -1.917312 94.482002 -0.381377
v -1.806068 94.482002 -0.748098
v -1.625418 94.482002 -1.086070
v -1.382305 94.482002 -1.382306
v -1.086070 94.482002 -1.625420
v -0.748098 94.482002 -1.806070
v -0.381376 94.482002 -1.917314
v -3.223934 87.975830 -0.641279
v -3.036879 87.975830 -1.257916
v -2.733119 87.975830 -1.826212
v -2.324327 87.975830 -2.324327
v -1.826212 87.975830 -2.733120
v -1.257917 87.975830 -3.036881
v -0.641280 87.975830 -3.223936
v -3.297936 87.990883 -0.020936
v -0.020936 87.990883 -3.297939
v -1.917858 94.482002 -0.020938
v -0.020937 94.482002 -1.917861
v -3.267564 87.975830 -0.020938
v -0.020938 87.975830 -3.267567
v -1.952811 94.482002 -0.020937
v -0.020937 94.482002 -1.952814
v -3.285031 87.975830 -0.020938
v -0.020938 87.975830 -3.285034
v 0.000001 87.987633 -3.311568
v -0.021271 94.492332 -1.961001
v -0.021456 87.987556 -3.310685
v -3.290419 87.963799 -0.021158
v -3.291510 87.963905 0.000001
v 0.000001 87.963905 -3.291513
v -0.021158 87.963799 -3.290422
v -1.908597 94.490456 0.000000
v -1.907537 94.490196 -0.020517
v 0.000001 94.490456 -1.908599
v -0.020516 94.490196 -1.907539
v -3.259119 87.965714 -0.020593
v -3.260230 87.965500 0.000001
v 0.000001 87.965500 -3.260233
v -0.020593 87.965714 -3.259121
v -1.962115 94.492126 0.000000
v -1.962115 94.492126 0.000000
v -1.908597 94.490456 0.000000
v -1.908597 94.490456 0.000000
v -1.907537 94.490196 -0.020517
v -1.907537 94.490196 -0.020517
v -1.960998 94.492332 -0.021271
v -1.960998 94.492332 -0.021271
v -3.048802 87.990883 -1.262854
v -3.236591 87.990883 -0.643797
v -2.743850 87.990883 -1.833381
v -2.333452 87.990883 -2.333452
v -1.833382 87.990883 -2.743850
v -1.262855 87.990883 -3.048803
v -0.643798 87.990883 -3.236593
v -0.021158 87.963799 -3.290422
v -0.021158 87.963799 -3.290422
v -0.021456 87.987556 -3.310685
v -0.021456 87.987556 -3.310685
v 0.000001 87.963905 -3.291513
v 0.000001 87.963905 -3.291513
v -1.806068 94.482002 -0.748098
v -1.917312 94.482002 -0.381377
v -1.625418 94.482002 -1.086070
v -1.382305 94.482002 -1.382306
v -1.086070 94.482002 -1.625420
v -0.748098 94.482002 -1.806070
v -0.381376 94.482002 -1.917314
v -3.311565 87.987633 0.000001
v -3.311565 87.987633 0.000001
v -3.310682 87.987556 -0.021456
v -3.310682 87.987556 -0.021456
v 0.000001 87.987633 -3.311568
v 0.000001 87.987633 -3.311568
v -3.036879 87.975830 -1.257916
v -3.223934 87.975830 -0.641279
v -2.733119 87.975830 -1.826212
v -2.324327 87.975830 -2.324327
v -1.826212 87.975830 -2.733120
v -1.257917 87.975830 -3.036881
v -0.641280 87.975830 -3.223936
v -1.773776 94.482002 -0.734722
v -1.883030 94.482002 -0.374558
v -1.596356 94.482002 -1.066651
v -1.357589 94.482002 -1.357590
v -1.066651 94.482002 -1.596357
v -0.734722 94.482002 -1.773777
v -0.374557 94.482002 -1.883032
v -3.291510 87.963905 0.000001
v -3.291510 87.963905 0.000001
v -3.290419 87.963799 -0.021158
v -3.290419 87.963799 -0.021158
v -0.021271 94.492332 -1.961001
v -0.021271 94.492332 -1.961001
v 0.000001 94.492126 -1.962117
v 0.000001 94.492126 -1.962117
v -3.020742 87.975830 -1.251231
v -3.206802 87.975830 -0.637872
v -2.718596 87.975830 -1.816507
v -2.311976 87.975830 -2.311976
v -1.816508 87.975830 -2.718596
v -1.251232 87.975830 -3.020743
v -0.637872 87.975830 -3.206804
v -1.952811 94.482002 -0.020937
v -1.952811 94.482002 -0.020937
v -3.297936 87.990883 -0.020936
v -3.297936 87.990883 -0.020936
v -0.020936 87.990883 -3.297939
v -0.020936 87.990883 -3.297939
v -0.020937 94.482002 -1.952814
v -0.020937 94.482002 -1.952814
v -3.285031 87.975830 -0.020938
v -3.285031 87.975830 -0.020938
v -0.020938 87.975830 -3.285034
v -0.020938 87.975830 -3.285034
v -1.917858 94.482002 -0.020938
v -1.917858 94.482002 -0.020938
v -0.020937 94.482002 -1.917861
v -0.020937 94.482002 -1.917861
v -3.267564 87.975830 -0.020938
v -3.267564 87.975830 -0.020938
v -0.020938 87.975830 -3.267567
v -0.020938 87.975830 -3.267567
v 0.000001 94.490456 -1.908599
v 0.000001 94.490456 -1.908599
v -0.020516 94.490196 -1.907539
v -0.020516 94.490196 -1.907539
v -3.259119 87.965714 -0.020593
v -3.259119 87.965714 -0.020593
v -3.260230 87.965500 0.000001
v -3.260230 87.965500 0.000001
v 0.000001 87.965500 -3.260233
v 0.000001 87.965500 -3.260233
v -0.020593 87.965714 -3.259121
v -0.020593 87.965714 -3.259121
vt 0.510406 0.804342
vt 0.500672 0.804020
vt 0.500672 0.803701
vt 0.570523 0.802223
vt 0.579937 0.800856
vt 0.570547 0.802529
vt 0.510406 0.804342
vt 0.520729 0.704236
vt 0.520427 0.805005
vt 0.530470 0.805262
vt 0.526689 0.704537
vt 0.532658 0.704596
vt 0.540517 0.805112
vt 0.538625 0.704414
vt 0.550553 0.804555
vt 0.544582 0.703990
vt 0.560560 0.803591
vt 0.570523 0.802223
vt 0.550518 0.703323
vt 0.500672 0.803701
vt 0.514790 0.703694
vt 0.520427 0.805005
vt 0.510370 0.804652
vt 0.530470 0.805262
vt 0.520397 0.805317
vt 0.540517 0.805112
vt 0.530453 0.805575
vt 0.550553 0.804555
vt 0.540513 0.805426
vt 0.560560 0.803591
vt 0.550561 0.804869
vt 0.560581 0.803904
vt 0.556058 0.702096
vt 0.579901 0.800548
vt 0.424458 0.709938
vt 0.446206 0.810667
vt 0.440762 0.811430
vt 0.520760 0.703684
vt 0.514790 0.703694
vt 0.514836 0.703158
vt 0.526698 0.703984
vt 0.520729 0.704236
vt 0.532658 0.704596
vt 0.526689 0.704537
vt 0.538589 0.703862
vt 0.532644 0.704044
vt 0.544523 0.703441
vt 0.538625 0.704414
vt 0.550420 0.702779
vt 0.544582 0.703990
vt 0.555884 0.701563
vt 0.550518 0.703323
vt 0.510359 0.804925
vt 0.500672 0.804020
vt 0.510370 0.804652
vt 0.570595 0.802794
vt 0.579937 0.800856
vt 0.579958 0.801124
vt 0.520397 0.805317
vt 0.520392 0.805590
vt 0.530453 0.805575
vt 0.530458 0.805849
vt 0.540513 0.805426
vt 0.540530 0.805699
vt 0.550561 0.804869
vt 0.550589 0.805141
vt 0.560581 0.803904
vt 0.560620 0.804175
vt 0.570547 0.802529
vt 0.509427 0.702562
vt 0.509313 0.703120
vt 0.493311 0.708605
vt 0.486504 0.811430
vt 0.481060 0.810667
vt 0.433955 0.708605
vt 0.452000 0.810088
vt 0.443821 0.707620
vt 0.457812 0.809740
vt 0.453719 0.707028
vt 0.463633 0.809624
vt 0.463633 0.706830
vt 0.469454 0.809740
vt 0.473547 0.707028
vt 0.475266 0.810088
vt 0.483445 0.707620
vt 0.509427 0.702562
vt 0.509109 0.703243
vt 0.509331 0.702342
vt 0.557604 0.703574
vt 0.604098 0.693050
vt 0.604234 0.693872
vt 0.652228 0.684862
vt 0.606522 0.692626
vt 0.652156 0.684052
vt 0.399672 0.685282
vt 0.451225 0.693593
vt 0.451009 0.694480
vt 0.555884 0.701563
vt 0.556257 0.702170
vt 0.556058 0.702096
vt 0.508327 0.705074
vt 0.454015 0.694032
vt 0.508581 0.704137
vt 0.604402 0.693470
vt 0.605307 0.692835
vt 0.605170 0.693335
vt 0.453674 0.694519
vt 0.452624 0.693809
vt 0.451500 0.694120
vt 0.452271 0.694288
vt 0.606289 0.693090
vt 0.454015 0.694032
vt 0.508738 0.703181
vt 0.508581 0.704137
vt 0.556581 0.702064
vt 0.604098 0.693050
vt 0.556743 0.702892
vt 0.454015 0.694032
vt 0.452801 0.692870
vt 0.454187 0.693078
vt 0.605138 0.692020
vt 0.604098 0.693050
vt 0.603934 0.692222
vt 0.509109 0.703243
vt 0.508980 0.702255
vt 0.509331 0.702342
vt 0.556272 0.701262
vt 0.556257 0.702170
vt 0.555958 0.701365
vt 0.452624 0.693809
vt 0.451401 0.692679
vt 0.452801 0.692870
vt 0.606355 0.691833
vt 0.605307 0.692835
vt 0.605138 0.692020
vt 0.398918 0.683257
vt 0.451225 0.693593
vt 0.398742 0.684171
vt 0.606522 0.692626
vt 0.652000 0.683257
vt 0.652156 0.684052
vt 0.454187 0.693078
vt 0.454168 0.692087
vt 0.508980 0.702255
vt 0.603934 0.692222
vt 0.556272 0.701262
vt 0.603848 0.691375
vt 0.579901 0.800548
vt 0.509313 0.703120
vt 0.556058 0.702096
vt 0.500681 0.804295
vt 0.502809 0.709938
vt 0.509313 0.703120
vt 0.556743 0.702892
vt 0.607291 0.693315
vt 0.398742 0.684171
vt 0.555958 0.701365
vt 0.454293 0.695074
vt 0.452791 0.694380
vt 0.605621 0.693247
vt 0.454187 0.693078
vt 0.603934 0.692222
vt 0.452624 0.693809
vt 0.605307 0.692835
vt 0.508738 0.703181
vt 0.556581 0.702064
vt 0.451225 0.693593
vt 0.606522 0.692626
vt 0.451401 0.692679
vt 0.606355 0.691833
vt 0.508738 0.703181
vt 0.453932 0.692590
vt 0.604101 0.691779
vt 0.556581 0.702064
vn -0.7446 -0.6509 -0.1481
vn -0.7571 -0.6490 -0.0746
vn -0.1481 -0.6509 -0.7445
vn -0.0745 -0.6488 -0.7573
vn -0.9604 0.2029 -0.1910
vn -0.9047 0.2029 -0.3747
vn -0.8142 0.2029 -0.5440
vn -0.6924 0.2029 -0.6924
vn -0.5440 0.2029 -0.8142
vn -0.3747 0.2029 -0.9047
vn -0.1910 0.2029 -0.9604
vn -0.9747 0.2020 -0.0960
vn -0.7014 -0.6509 -0.2905
vn -0.6313 -0.6509 -0.4217
vn -0.5369 -0.6509 -0.5368
vn -0.4217 -0.6508 -0.6314
vn -0.5369 -0.6509 -0.5367
vn -0.2905 -0.6508 -0.7015
vn -0.0960 0.2020 -0.9747
vn 0.9746 -0.2022 0.0960
vn 0.9603 -0.2031 0.1910
vn 0.0000 1.0000 0.0001
vn 0.0000 1.0000 0.0000
vn 0.0000 1.0000 -0.0002
vn 0.0000 1.0000 -0.0001
vn 0.0000 -1.0000 -0.0002
vn 0.0000 -1.0000 -0.0000
vn 0.0000 -1.0000 0.0005
vn 0.0000 -1.0000 -0.0001
vn 0.1910 -0.2031 0.9603
vn 0.0960 -0.2022 0.9746
vn 0.9046 -0.2031 0.3747
vn 0.8141 -0.2031 0.5440
vn 0.6924 -0.2031 0.6924
vn 0.5440 -0.2031 0.8141
vn 0.3747 -0.2031 0.9046
vn 0.0313 0.0080 -0.9995
vn 0.0180 -0.0122 -0.9998
vn 0.0319 0.0112 -0.9994
vn -0.9997 -0.0194 0.0163
vn -0.9992 0.0047 0.0395
vn -0.9993 0.0039 0.0372
vn -0.9995 0.0080 0.0313
vn -0.9996 -0.0125 0.0258
vn -0.9994 0.0112 0.0319
vn 0.0258 -0.0125 -0.9996
vn 0.0238 -0.0085 -0.9997
vn -0.9998 -0.0122 0.0180
vn 0.0163 -0.0194 -0.9997
vn 0.0395 0.0047 -0.9992
vn -0.9998 0.0094 0.0151
vn -0.9999 0.0151 0.0070
vn 0.0372 0.0039 -0.9993
vn 0.0151 0.0094 -0.9998
vn 0.0070 0.0151 -0.9999
vn -0.9997 -0.0085 0.0238
vn -0.9783 0.2030 -0.0411
vn -0.9780 0.2029 -0.0494
vn -0.0493 0.2029 -0.9780
vn -0.0410 0.2030 -0.9783
vn -0.0494 0.2029 -0.9780
vn -0.7622 -0.6466 -0.0316
vn -0.7614 -0.6474 -0.0333
vn -0.7634 -0.6453 -0.0290
vn -0.0333 -0.6474 -0.7614
vn -0.0317 -0.6466 -0.7622
vn -0.0291 -0.6453 -0.7634
vn 0.0333 0.9994 0.0065
vn 0.0380 0.9993 -0.0055
vn 0.0401 0.9991 -0.0108
vn -0.0054 0.9993 0.0381
vn 0.0063 0.9994 0.0334
vn -0.0106 0.9991 0.0402
vn 0.0547 -0.9985 0.0022
vn 0.0573 -0.9984 -0.0018
vn 0.0509 -0.9987 0.0079
vn -0.0015 -0.9984 0.0574
vn 0.0022 -0.9985 0.0547
vn 0.0077 -0.9987 0.0507
vn 0.9778 -0.2026 0.0533
vn 0.9780 -0.2026 0.0507
vn 0.0507 -0.2026 0.9780
vn 0.0531 -0.2026 0.9778
vn 0.0000 -0.0000 1.0000
vn 1.0000 -0.0000 -0.0000
vn -0.7601 -0.6488 -0.0360
vn -0.0359 -0.6487 -0.7602
vn 0.0312 0.9994 0.0117
vn 0.0113 0.9994 0.0314
vn 0.0612 -0.9981 -0.0076
vn -0.0071 -0.9981 0.0613
usemtl Saturn_V_Main
s 1
f 2/1/1 137/2/2 132/3/2
f 8/4/3 139/5/4 106/6/3
f 75/7/5 87/8/6 74/9/6
f 76/10/7 87/8/6 89/11/7
f 76/10/7 90/12/8 77/13/8
f 77/13/8 91/14/9 78/15/9
f 78/15/9 92/16/10 79/17/10
f 80/18/11 92/16/10 93/19/11
f 131/20/12 88/21/5 75/7/5
f 3/22/13 101/23/1 2/1/1
f 4/24/14 100/25/13 3/22/13
f 5/26/15 102/27/14 4/24/14
f 6/28/16 103/29/17 5/26/15
f 7/30/18 104/31/16 6/28/16
f 8/4/3 105/32/18 7/30/18
f 80/18/11 135/33/19 133/34/19
f 45/35/20 9/36/21 43/37/20
f 107/38/22 27/39/23 108/40/23
f 109/41/23 28/42/22 107/38/22
f 109/41/23 30/43/23 29/44/23
f 111/45/22 30/43/23 110/46/23
f 112/47/24 31/48/22 111/45/22
f 113/49/24 32/50/24 112/47/24
f 144/51/23 33/52/25 113/49/24
f 123/53/26 49/54/27 34/55/26
f 128/56/28 140/57/27 147/58/27
f 123/53/26 35/59/27 122/60/27
f 122/60/27 36/61/27 124/62/27
f 124/62/27 37/63/29 125/64/29
f 125/64/29 38/65/29 126/66/29
f 126/66/29 39/67/29 127/68/29
f 127/68/29 40/69/28 128/56/28
f 142/70/23 27/39/23 47/71/23
f 22/72/30 44/73/31 15/74/30
f 16/75/21 10/76/32 9/36/21
f 17/77/32 11/78/33 10/76/32
f 18/79/33 12/80/34 11/78/33
f 19/81/34 13/82/35 12/80/34
f 20/83/35 14/84/36 13/82/35
f 21/85/36 15/74/30 14/84/36
f 141/86/37 72/87/38 70/88/39
f 136/89/40 83/90/41 134/91/42
f 143/92/43 159/93/44 151/94/45
f 141/95/37 153/96/46 145/97/47
f 143/98/43 118/99/48 136/100/40
f 130/101/49 97/102/50 72/103/38
f 134/104/42 81/105/51 50/106/52
f 41/107/53 117/108/54 97/102/50
f 145/109/47 117/108/54 138/110/55
f 148/111/56 81/105/51 159/93/44
f 96/112/57 67/113/58 73/114/58
f 120/115/59 84/116/60 119/117/61
f 24/118/62 114/119/63 95/120/64
f 85/121/65 53/122/66 98/123/67
f 25/124/68 68/125/69 71/126/70
f 149/127/71 52/128/72 152/129/73
f 54/130/74 155/131/75 115/132/76
f 157/133/77 57/134/78 86/135/79
f 69/136/80 62/137/81 59/138/80
f 65/139/82 150/140/83 61/141/83
f 23/142/84 63/143/84 58/144/84
f 51/145/85 60/146/85 64/147/85
f 2/1/1 101/23/1 137/2/2
f 8/4/3 42/148/4 139/5/4
f 75/7/5 88/21/5 87/8/6
f 76/10/7 74/9/6 87/8/6
f 76/10/7 89/11/7 90/12/8
f 77/13/8 90/12/8 91/14/9
f 78/15/9 91/14/9 92/16/10
f 80/18/11 79/17/10 92/16/10
f 131/20/12 129/149/12 88/21/5
f 3/22/13 100/25/13 101/23/1
f 4/24/14 102/27/14 100/25/13
f 5/26/15 103/29/17 102/27/14
f 6/28/16 104/31/16 103/29/17
f 7/30/18 105/32/18 104/31/16
f 8/4/3 106/6/3 105/32/18
f 80/18/11 93/19/11 135/33/19
f 45/35/20 16/75/21 9/36/21
f 107/38/22 28/42/22 27/39/23
f 109/41/23 29/44/23 28/42/22
f 109/41/23 110/46/23 30/43/23
f 111/45/22 31/48/22 30/43/23
f 112/47/24 32/50/24 31/48/22
f 113/49/24 33/52/25 32/50/24
f 144/51/23 48/150/23 33/52/25
f 123/53/26 146/151/27 49/54/27
f 128/56/28 40/69/28 140/57/27
f 123/53/26 34/55/26 35/59/27
f 122/60/27 35/59/27 36/61/27
f 124/62/27 36/61/27 37/63/29
f 125/64/29 37/63/29 38/65/29
f 126/66/29 38/65/29 39/67/29
f 127/68/29 39/67/29 40/69/28
f 142/70/23 108/40/23 27/39/23
f 22/72/30 46/152/31 44/73/31
f 16/75/21 17/77/32 10/76/32
f 17/77/32 18/79/33 11/78/33
f 18/79/33 19/81/34 12/80/34
f 19/81/34 20/83/35 13/82/35
f 20/83/35 21/85/36 14/84/36
f 21/85/36 22/72/30 15/74/30
f 141/86/37 130/153/49 72/87/38
f 136/89/40 118/154/48 83/90/41
f 143/92/43 148/155/56 159/93/44
f 141/95/37 70/156/39 153/96/46
f 143/98/43 151/157/45 118/99/48
f 130/101/49 41/158/53 97/102/50
f 134/104/42 83/90/41 81/105/51
f 41/107/53 138/159/55 117/108/54
f 145/109/47 153/96/46 117/108/54
f 148/111/56 50/160/52 81/105/51
f 96/112/57 94/161/57 67/113/58
f 120/115/59 99/162/60 84/116/60
f 24/118/62 116/163/86 114/119/63
f 85/121/65 82/164/87 53/122/66
f 25/124/68 66/165/88 68/125/69
f 149/127/71 121/166/89 52/128/72
f 54/130/74 154/167/90 155/131/75
f 157/133/77 160/168/91 57/134/78
f 69/136/80 156/169/81 62/137/81
f 65/139/82 158/170/82 150/140/83
f 58/144/84 26/171/84 23/142/84
f 23/142/84 55/172/84 63/143/84
f 64/147/85 56/173/85 51/145/85
f 51/145/85 1/174/85 60/146/85
o LEM_Fairing_Hinge.002_Cylinder.019
v -1.899348 87.996544 -2.643502
v -2.643502 87.996544 -1.899347
v -1.889115 87.990547 -2.633270
v -2.633270 87.990547 -1.889114
v -1.884877 87.976074 -2.629031
v -2.629031 87.976074 -1.884876
v -1.889115 87.961609 -2.633270
v -2.633269 87.961609 -1.889115
v -1.899348 87.955612 -2.643502
v -2.643502 87.955612 -1.899347
v -1.909580 87.961609 -2.653735
v -2.653735 87.961609 -1.909580
v -1.913819 87.976074 -2.657973
v -2.657973 87.976074 -1.913818
v -1.909581 87.990547 -2.653735
v -2.653735 87.990547 -1.909579
vt 1.000000 1.000000
vt 0.875000 0.500000
vt 1.000000 0.500000
vt 0.750000 1.000000
vt 0.750000 0.500000
vt 0.625000 0.500000
vt 0.625000 1.000000
vt 0.500000 0.500000
vt 0.500000 1.000000
vt 0.375000 0.500000
vt 0.375000 1.000000
vt 0.250000 0.500000
vt 0.010000 0.250000
vt 0.250000 0.010000
vt 0.490000 0.250000
vt 0.250000 1.000000
vt 0.125000 0.500000
vt 0.000000 1.000000
vt 0.000000 0.500000
vt 0.580294 0.419706
vt 0.919706 0.419706
vt 0.919706 0.080294
vt 0.875000 1.000000
vt 0.419706 0.419706
vt 0.250000 0.490000
vt 0.080294 0.419706
vt 0.080294 0.080294
vt 0.419706 0.080294
vt 0.125000 1.000000
vt 0.750000 0.490000
vt 0.990000 0.250000
vt 0.750000 0.010000
vt 0.580294 0.080294
vt 0.510000 0.250000
vn -0.4457 0.7765 0.4454
vn 0.8339 0.5490 -0.0574
vn 0.4456 0.7765 -0.4456
vn 0.1034 -0.0001 0.9946
vn 0.9946 -0.0000 0.1036
vn 0.8339 -0.5489 -0.0573
vn -0.0572 -0.5488 0.8340
vn 0.4457 -0.7763 -0.4457
vn -0.4455 -0.7763 0.4460
vn 0.0574 -0.5489 -0.8339
vn -0.8337 -0.5492 0.0579
vn -0.1034 -0.0001 -0.9946
vn -0.9946 -0.0001 -0.1035
vn 0.0574 0.5491 -0.8338
vn -0.0575 0.5490 0.8338
vn -0.8339 0.5489 0.0573
usemtl None
s 1
f 162/175/92 163/176/93 161/177/94
f 163/176/93 166/178/95 165/179/96
f 166/178/95 167/180/97 165/179/96
f 168/181/98 169/182/99 167/180/97
f 170/183/100 171/184/101 169/182/99
f 172/185/102 173/186/103 171/184/101
f 174/187/104 170/188/100 166/189/95
f 174/190/104 175/191/105 173/186/103
f 175/191/105 162/192/92 161/193/94
f 175/194/105 163/195/93 167/196/97
f 162/175/92 164/197/106 163/176/93
f 163/176/93 164/197/106 166/178/95
f 166/178/95 168/181/98 167/180/97
f 168/181/98 170/183/100 169/182/99
f 170/183/100 172/185/102 171/184/101
f 172/185/102 174/190/104 173/186/103
f 166/189/95 164/198/106 162/199/92
f 162/199/92 176/200/107 174/187/104
f 174/187/104 172/201/102 170/188/100
f 170/188/100 168/202/98 166/189/95
f 166/189/95 162/199/92 174/187/104
f 174/190/104 176/203/107 175/191/105
f 175/191/105 176/203/107 162/192/92
f 175/194/105 161/204/94 163/195/93
f 163/195/93 165/205/96 167/196/97
f 167/196/97 169/206/99 175/194/105
f 169/206/99 171/207/101 175/194/105
f 171/207/101 173/208/103 175/194/105
