# Blender v3.1.2 OBJ File: 'Saturn V.blend'
# www.blender.org
mtllib Saturn V_3.mtl
o Lunar_Module_Placeholder_Cube.013
v -0.813679 90.126457 0.877128
v -0.813679 91.753822 0.877128
v -0.813679 90.126457 -0.877128
v -0.813679 91.753822 -0.877128
v 0.813679 90.126457 0.877128
v 0.813679 91.753822 0.877128
v 0.813679 90.126457 -0.877128
v 0.813679 91.753822 -0.877128
v -2.108255 89.116058 0.706718
v -2.108255 90.468452 0.706718
v -2.108255 89.116058 -0.706718
v -2.108255 90.468452 -0.706718
v -0.813679 89.116058 0.706718
v -0.813679 90.468452 0.706718
v -0.813679 89.116058 -0.706718
v -0.813679 90.468452 -0.706718
v -1.747970 90.962799 0.706718
v -1.747970 90.962799 -0.706718
v -0.813679 90.962799 0.706718
v -0.813679 90.962799 -0.706718
v -0.813679 88.499100 1.066033
v -0.813679 90.126457 1.066033
v -0.813679 88.499100 -1.066033
v -0.813679 90.126457 -1.066033
v 0.813679 88.499100 1.066033
v 0.813679 90.126457 1.066033
v 0.813679 88.499100 -1.066033
v 0.813679 90.126457 -1.066033
v 1.983871 91.684151 0.706718
v 1.983871 91.002045 0.412363
v 1.983871 91.684151 -0.706717
v 1.983871 91.002045 -0.412364
v 0.813679 91.684151 0.706718
v 0.813679 91.002045 0.412363
v 0.813679 91.684151 -0.706717
v 0.813679 91.002045 -0.412364
v 1.485382 90.666634 0.412363
v 1.485382 90.666634 -0.412364
v 0.813679 90.666634 0.412363
v 0.813679 90.666634 -0.412364
v 1.983871 91.343102 0.706718
v 1.983871 91.343102 -0.706718
v 0.813679 91.343102 -0.706718
v 0.813679 91.343102 0.706718
v 1.534560 89.756012 -0.462735
v 1.080140 89.756012 -0.654405
v 1.165667 88.499100 -0.762029
v 0.819931 90.666634 -0.409967
v 1.694822 88.499100 -0.538836
v 1.104613 90.666634 -0.289891
v 1.914005 88.499100 0.000000
v 1.222533 90.666634 0.000000
v 1.694822 88.499100 0.538836
v 1.104613 90.666634 0.289891
v 1.165667 88.499100 0.762030
v 0.819931 90.666634 0.409968
v 0.636513 88.499100 0.538836
v 0.535249 90.666634 0.289891
v 0.417330 88.499100 0.000000
v 0.417330 90.666634 0.000000
v 0.636513 88.499100 -0.538836
v 0.535249 90.666634 -0.289891
v 1.722787 89.756012 0.000000
v 1.534560 89.756012 0.462735
v 1.080139 89.756012 0.654406
v 0.625719 89.756012 0.462735
v 0.437492 89.756012 0.000000
v 0.625719 89.756012 -0.462734
vt 0.625000 0.000000
vt 0.375000 0.250000
vt 0.375000 0.000000
vt 0.625000 0.250000
vt 0.375000 0.500000
vt 0.625000 0.500000
vt 0.375000 0.750000
vt 0.625000 0.750000
vt 0.375000 1.000000
vt 0.125000 0.750000
vt 0.125000 0.500000
vt 0.875000 0.500000
vt 0.625000 0.000000
vt 0.375000 0.250000
vt 0.375000 0.000000
vt 0.625000 0.250000
vt 0.375000 0.500000
vt 0.625000 0.500000
vt 0.375000 0.750000
vt 0.625000 0.750000
vt 0.375000 1.000000
vt 0.125000 0.750000
vt 0.125000 0.500000
vt 0.625000 0.750000
vt 0.875000 0.500000
vt 0.625000 0.500000
vt 0.625000 0.250000
vt 0.625000 1.000000
vt 0.625000 1.000000
vt 0.625000 0.000000
vt 0.375000 0.250000
vt 0.375000 0.000000
vt 0.625000 0.250000
vt 0.375000 0.500000
vt 0.625000 0.500000
vt 0.375000 0.750000
vt 0.625000 0.750000
vt 0.375000 1.000000
vt 0.125000 0.750000
vt 0.125000 0.500000
vt 0.875000 0.500000
vt 0.625000 0.000000
vt 0.500000 0.250000
vt 0.500000 0.000000
vt 0.625000 0.250000
vt 0.500000 0.500000
vt 0.625000 0.750000
vt 0.500000 0.750000
vt 0.500000 1.000000
vt 0.375000 0.500000
vt 0.125000 0.750000
vt 0.125000 0.500000
vt 0.625000 0.500000
vt 0.625000 0.750000
vt 0.875000 0.500000
vt 0.625000 0.250000
vt 0.625000 1.000000
vt 0.625000 1.000000
vt 0.625000 0.500000
vt 0.375000 1.000000
vt 0.375000 0.750000
vt 0.375000 0.250000
vt 0.375000 0.000000
vt 0.875000 0.500000
vt 0.750000 0.867145
vt 0.750000 0.500000
vt 1.000000 0.867145
vt 0.875000 1.000000
vt 0.875000 0.867145
vt 0.625000 0.500000
vt 0.750000 1.000000
vt 0.625000 0.867145
vt 0.500000 0.500000
vt 0.500000 0.867145
vt 0.375000 0.500000
vt 0.625000 1.000000
vt 0.375000 0.867145
vt 0.250000 0.500000
vt 0.500000 1.000000
vt 0.125000 0.867145
vt 0.125000 0.500000
vt 0.375000 1.000000
vt 0.250000 0.867145
vt 0.490000 0.250000
vt 0.080294 0.080294
vt 0.419706 0.080294
vt 0.000000 0.867145
vt 0.000000 0.500000
vt 0.125000 1.000000
vt 1.000000 0.500000
vt 0.000000 1.000000
vt 0.580294 0.080294
vt 0.510000 0.250000
vt 0.919706 0.080294
vt 0.625000 1.000000
vt 0.875000 0.750000
vt 0.875000 0.750000
vt 0.625000 0.000000
vt 0.625000 1.000000
vt 0.875000 0.750000
vt 0.875000 0.750000
vt 0.625000 0.000000
vt 1.000000 1.000000
vt 0.250000 1.000000
vt 0.419706 0.419706
vt 0.080294 0.419706
vt 0.250000 0.490000
vt 0.010000 0.250000
vt 0.250000 0.010000
vt 0.580294 0.419706
vt 0.750000 0.490000
vt 0.919706 0.419706
vt 0.990000 0.250000
vt 0.750000 0.010000
vn -0.5774 0.5774 0.5774
vn -0.5774 -0.5774 -0.5774
vn -0.5774 -0.5774 0.5774
vn -0.5774 0.5774 -0.5774
vn 0.5774 -0.5774 -0.5774
vn 0.5774 0.5774 -0.5774
vn 0.5774 -0.5774 0.5774
vn 0.5774 0.5774 0.5774
vn -0.7277 0.2371 0.6436
vn -0.7277 0.2371 -0.6436
vn 0.7071 0.0000 -0.7071
vn 0.7071 0.0000 0.7071
vn -0.3564 0.7008 -0.6179
vn -0.3564 0.7008 0.6179
vn 0.7330 -0.5404 0.4132
vn 0.6364 -0.2688 -0.7230
vn 0.6364 -0.2688 0.7230
vn 0.7330 -0.5404 -0.4132
vn -0.6364 -0.2688 -0.7230
vn -0.7946 -0.2116 0.5691
vn -0.6364 -0.2688 0.7230
vn 0.2225 -0.7293 -0.6469
vn 0.2225 -0.7293 0.6469
vn -0.7946 -0.2116 -0.5691
vn 0.5859 -0.5797 -0.5662
vn 0.9511 0.3088 -0.0000
vn 0.8189 -0.5739 -0.0000
vn 0.0191 0.1762 -0.9842
vn 0.4201 0.7829 -0.4589
vn 0.6910 0.2745 -0.6687
vn 0.5859 -0.5797 0.5662
vn 0.5902 0.8072 0.0000
vn 0.6910 0.2745 0.6687
vn 0.0130 -0.5964 0.8025
vn 0.0191 0.1762 0.9842
vn -0.5538 -0.6163 0.5598
vn 0.4201 0.7829 0.4589
vn -0.6982 0.0538 0.7139
vn -0.7804 -0.6253 0.0000
vn -0.0510 0.7172 0.6950
vn -0.6982 0.0538 -0.7139
vn -0.5538 -0.6163 -0.5598
vn -0.5672 0.6495 0.5064
vn -1.0000 -0.0031 -0.0000
vn 0.0130 -0.5964 -0.8025
vn -0.5672 0.6495 -0.5064
vn -0.0510 0.7172 -0.6950
vn -0.7822 0.6230 0.0000
usemtl None
s 1
f 2/1/1 3/2/2 1/3/3
f 4/4/4 7/5/5 3/2/2
f 8/6/6 5/7/7 7/5/5
f 6/8/8 1/9/3 5/7/7
f 7/5/5 1/10/3 3/11/2
f 4/12/4 6/8/8 8/6/6
f 10/13/9 11/14/2 9/15/3
f 12/16/10 15/17/5 11/14/2
f 16/18/11 13/19/7 15/17/5
f 14/20/12 9/21/3 13/19/7
f 15/17/5 9/22/3 11/23/2
f 16/18/11 19/24/8 14/20/12
f 18/25/13 19/24/8 20/26/6
f 10/13/9 18/27/13 12/16/10
f 14/20/12 17/28/14 10/29/9
f 16/18/11 18/27/13 20/26/6
f 22/30/1 23/31/2 21/32/3
f 24/33/4 27/34/5 23/31/2
f 28/35/6 25/36/7 27/34/5
f 26/37/8 21/38/3 25/36/7
f 27/34/5 21/39/3 23/40/2
f 24/41/4 26/37/8 28/35/6
f 30/42/15 42/43/16 41/44/17
f 32/45/18 43/46/19 42/43/16
f 43/46/19 34/47/20 44/48/21
f 34/47/20 41/49/17 44/48/21
f 35/50/4 29/51/8 31/52/6
f 34/47/20 40/53/2 39/54/3
f 38/55/22 39/54/3 40/53/2
f 30/42/15 38/56/22 32/45/18
f 34/47/20 37/57/23 30/58/15
f 36/59/24 38/56/22 40/53/2
f 44/48/21 29/60/8 33/61/1
f 43/46/19 33/61/1 35/50/4
f 42/43/16 35/50/4 31/62/6
f 41/44/17 31/62/6 29/63/8
f 49/64/25 63/65/26 51/66/27
f 46/67/28 50/68/29 45/69/30
f 63/65/26 53/70/31 51/66/27
f 45/69/30 52/71/32 63/65/26
f 64/72/33 55/73/34 53/70/31
f 52/71/32 64/72/33 63/65/26
f 65/74/35 57/75/36 55/73/34
f 54/76/37 65/74/35 64/72/33
f 66/77/38 59/78/39 57/75/36
f 56/79/40 66/77/38 65/74/35
f 59/78/39 68/80/41 61/81/42
f 58/82/43 67/83/44 66/77/38
f 52/84/32 58/85/43 54/86/37
f 61/81/42 46/87/28 47/88/45
f 67/83/44 62/89/46 68/80/41
f 47/90/45 45/69/30 49/64/25
f 68/80/41 48/91/47 46/87/28
f 57/92/36 59/93/39 53/94/31
f 2/1/1 4/4/4 3/2/2
f 4/4/4 8/6/6 7/5/5
f 8/6/6 6/8/8 5/7/7
f 6/8/8 2/95/1 1/9/3
f 7/5/5 5/7/7 1/10/3
f 4/12/4 2/96/1 6/8/8
f 10/13/9 12/16/10 11/14/2
f 12/16/10 16/18/11 15/17/5
f 16/18/11 14/20/12 13/19/7
f 14/20/12 10/29/9 9/21/3
f 15/17/5 13/19/7 9/22/3
f 16/18/11 20/26/6 19/24/8
f 18/25/13 17/97/14 19/24/8
f 10/13/9 17/98/14 18/27/13
f 14/20/12 19/24/8 17/28/14
f 16/18/11 12/16/10 18/27/13
f 22/30/1 24/33/4 23/31/2
f 24/33/4 28/35/6 27/34/5
f 28/35/6 26/37/8 25/36/7
f 26/37/8 22/99/1 21/38/3
f 27/34/5 25/36/7 21/39/3
f 24/41/4 22/100/1 26/37/8
f 30/42/15 32/45/18 42/43/16
f 32/45/18 36/59/24 43/46/19
f 43/46/19 36/59/24 34/47/20
f 34/47/20 30/58/15 41/49/17
f 35/50/4 33/61/1 29/51/8
f 34/47/20 36/59/24 40/53/2
f 38/55/22 37/101/23 39/54/3
f 30/42/15 37/102/23 38/56/22
f 34/47/20 39/54/3 37/57/23
f 36/59/24 32/45/18 38/56/22
f 44/48/21 41/49/17 29/60/8
f 43/46/19 44/48/21 33/61/1
f 42/43/16 43/46/19 35/50/4
f 41/44/17 42/43/16 31/62/6
f 49/64/25 45/69/30 63/65/26
f 46/67/28 48/103/47 50/68/29
f 63/65/26 64/72/33 53/70/31
f 45/69/30 50/68/29 52/71/32
f 64/72/33 65/74/35 55/73/34
f 52/71/32 54/76/37 64/72/33
f 65/74/35 66/77/38 57/75/36
f 54/76/37 56/79/40 65/74/35
f 66/77/38 67/83/44 59/78/39
f 56/79/40 58/82/43 66/77/38
f 59/78/39 67/83/44 68/80/41
f 58/82/43 60/104/48 67/83/44
f 52/84/32 50/105/29 62/106/46
f 50/105/29 48/107/47 62/106/46
f 62/106/46 60/108/48 52/84/32
f 60/108/48 58/85/43 52/84/32
f 58/85/43 56/109/40 54/86/37
f 61/81/42 68/80/41 46/87/28
f 67/83/44 60/104/48 62/89/46
f 47/90/45 46/67/28 45/69/30
f 68/80/41 62/89/46 48/91/47
f 61/110/42 47/111/45 49/112/25
f 49/112/25 51/113/27 61/110/42
f 51/113/27 53/94/31 59/93/39
f 61/110/42 51/113/27 59/93/39
f 53/94/31 55/114/34 57/92/36
