# Blender v3.1.2 OBJ File: 'Saturn V.blend'
# www.blender.org
mtllib Saturn V_4_2.mtl
o LEM_Fairing_Hinge.001_Cylinder.019
v 1.899348 87.996544 2.643502
v 2.643502 87.996544 1.899347
v 1.889115 87.990547 2.633269
v 2.633270 87.990547 1.889115
v 1.884876 87.976074 2.629031
v 2.629031 87.976074 1.884876
v 1.889115 87.961609 2.633270
v 2.633270 87.961609 1.889115
v 1.899348 87.955612 2.643502
v 2.643502 87.955612 1.899347
v 1.909580 87.961609 2.653734
v 2.653735 87.961609 1.909580
v 1.913819 87.976074 2.657973
v 2.657973 87.976074 1.913818
v 1.909580 87.990547 2.653734
v 2.653735 87.990547 1.909580
vt 1.000000 1.000000
vt 0.875000 0.500000
vt 1.000000 0.500000
vt 0.750000 1.000000
vt 0.750000 0.500000
vt 0.625000 0.500000
vt 0.625000 1.000000
vt 0.500000 0.500000
vt 0.500000 1.000000
vt 0.375000 0.500000
vt 0.375000 1.000000
vt 0.250000 0.500000
vt 0.010000 0.250000
vt 0.250000 0.010000
vt 0.490000 0.250000
vt 0.250000 1.000000
vt 0.125000 0.500000
vt 0.000000 1.000000
vt 0.000000 0.500000
vt 0.580294 0.419706
vt 0.919706 0.419706
vt 0.919706 0.080294
vt 0.875000 1.000000
vt 0.419706 0.419706
vt 0.250000 0.490000
vt 0.080294 0.419706
vt 0.080294 0.080294
vt 0.419706 0.080294
vt 0.125000 1.000000
vt 0.750000 0.490000
vt 0.990000 0.250000
vt 0.750000 0.010000
vt 0.580294 0.080294
vt 0.510000 0.250000
vn 0.4457 0.7763 -0.4458
vn -0.8338 0.5490 0.0578
vn -0.4455 0.7764 0.4458
vn -0.1034 -0.0002 -0.9946
vn -0.9946 -0.0001 -0.1034
vn -0.8339 -0.5489 0.0572
vn 0.0572 -0.5491 -0.8338
vn -0.4458 -0.7766 0.4451
vn 0.4456 -0.7765 -0.4454
vn -0.0574 -0.5492 0.8338
vn 0.8339 -0.5490 -0.0573
vn 0.1034 -0.0000 0.9946
vn 0.9946 -0.0001 0.1037
vn -0.0573 0.5491 0.8338
vn 0.0575 0.5488 -0.8340
vn 0.8339 0.5489 -0.0572
usemtl None
s 1
f 2/1/1 3/2/2 1/3/3
f 3/2/2 6/4/4 5/5/5
f 6/4/4 7/6/6 5/5/5
f 8/7/7 9/8/8 7/6/6
f 10/9/9 11/10/10 9/8/8
f 12/11/11 13/12/12 11/10/10
f 14/13/13 10/14/9 6/15/4
f 14/16/13 15/17/14 13/12/12
f 15/17/14 2/18/1 1/19/3
f 15/20/14 3/21/2 7/22/6
f 2/1/1 4/23/15 3/2/2
f 3/2/2 4/23/15 6/4/4
f 6/4/4 8/7/7 7/6/6
f 8/7/7 10/9/9 9/8/8
f 10/9/9 12/11/11 11/10/10
f 12/11/11 14/16/13 13/12/12
f 6/15/4 4/24/15 2/25/1
f 2/25/1 16/26/16 14/13/13
f 14/13/13 12/27/11 10/14/9
f 10/14/9 8/28/7 6/15/4
f 6/15/4 2/25/1 14/13/13
f 14/16/13 16/29/16 15/17/14
f 15/17/14 16/29/16 2/18/1
f 15/20/14 1/30/3 3/21/2
f 3/21/2 5/31/5 7/22/6
f 7/22/6 9/32/8 15/20/14
f 9/32/8 11/33/10 15/20/14
f 11/33/10 13/34/12 15/20/14
o LEM_Fairing.001_Cylinder.018
v 0.000003 94.492119 1.962115
v 3.236593 87.990875 0.643793
v 3.048805 87.990875 1.262851
v 2.743853 87.990875 1.833378
v 2.333456 87.990875 2.333449
v 1.833386 87.990875 2.743847
v 1.262859 87.990875 3.048800
v 0.643802 87.990875 3.236590
v 1.883033 94.481995 0.374554
v 1.773779 94.481995 0.734719
v 1.596359 94.481995 1.066648
v 1.357592 94.481995 1.357587
v 1.066654 94.481995 1.596354
v 0.734725 94.481995 1.773774
v 0.374561 94.481995 1.883029
v 3.206805 87.975822 0.637868
v 3.020745 87.975822 1.251228
v 2.718599 87.975822 1.816504
v 2.311979 87.975822 2.311972
v 1.816512 87.975822 2.718593
v 1.251236 87.975822 3.020740
v 0.637876 87.975822 3.206801
v 3.311568 87.987625 -0.000005
v 3.310685 87.987549 0.021452
v 1.961002 94.492325 0.021268
v 1.962118 94.492119 -0.000004
v 1.917315 94.481995 0.381373
v 1.806072 94.481995 0.748095
v 1.625422 94.481995 1.086067
v 1.382308 94.481995 1.382302
v 1.086074 94.481995 1.625417
v 0.748101 94.481995 1.806067
v 0.381380 94.481995 1.917311
v 3.223937 87.975822 0.641276
v 3.036883 87.975822 1.257912
v 2.733123 87.975822 1.826208
v 2.324331 87.975822 2.324323
v 1.826216 87.975822 2.733117
v 1.257921 87.975822 3.036877
v 0.641284 87.975822 3.223933
v 3.297939 87.990875 0.020932
v 0.020941 87.990875 3.297936
v 1.917861 94.481995 0.020934
v 0.020941 94.481995 1.917858
v 3.267567 87.975822 0.020934
v 0.020942 87.975822 3.267564
v 1.952815 94.481995 0.020934
v 0.020940 94.481995 1.952811
v 3.285034 87.975822 0.020934
v 0.020942 87.975822 3.285031
v 0.000003 87.987625 3.311565
v 0.021274 94.492325 1.960998
v 0.021461 87.987549 3.310682
v 3.290422 87.963791 0.021154
v 3.291513 87.963898 -0.000005
v 0.000003 87.963898 3.291510
v 0.021162 87.963791 3.290419
v 1.908600 94.490448 -0.000004
v 1.907540 94.490189 0.020513
v 0.000003 94.490448 1.908597
v 0.020520 94.490189 1.907536
v 3.259121 87.965706 0.020589
v 3.260233 87.965492 -0.000005
v 0.000003 87.965492 3.260230
v 0.020597 87.965706 3.259119
v 1.962118 94.492119 -0.000004
v 1.962118 94.492119 -0.000004
v 1.908600 94.490448 -0.000004
v 1.908600 94.490448 -0.000004
v 1.907540 94.490189 0.020513
v 1.907540 94.490189 0.020513
v 1.961002 94.492325 0.021268
v 1.961002 94.492325 0.021268
v 3.048805 87.990875 1.262851
v 3.236593 87.990875 0.643793
v 2.743853 87.990875 1.833378
v 2.333456 87.990875 2.333449
v 1.833386 87.990875 2.743847
v 1.262859 87.990875 3.048800
v 0.643802 87.990875 3.236590
v 0.021162 87.963791 3.290419
v 0.021162 87.963791 3.290419
v 0.021461 87.987549 3.310682
v 0.021461 87.987549 3.310682
v 0.000003 87.963898 3.291510
v 0.000003 87.963898 3.291510
v 1.806072 94.481995 0.748095
v 1.917315 94.481995 0.381373
v 1.625422 94.481995 1.086067
v 1.382308 94.481995 1.382302
v 1.086074 94.481995 1.625417
v 0.748101 94.481995 1.806067
v 0.381380 94.481995 1.917311
v 3.311568 87.987625 -0.000005
v 3.311568 87.987625 -0.000005
v 3.310685 87.987549 0.021452
v 3.310685 87.987549 0.021452
v 0.000003 87.987625 3.311565
v 0.000003 87.987625 3.311565
v 3.036883 87.975822 1.257912
v 3.223937 87.975822 0.641276
v 2.733123 87.975822 1.826208
v 2.324331 87.975822 2.324323
v 1.826216 87.975822 2.733117
v 1.257921 87.975822 3.036877
v 0.641284 87.975822 3.223933
v 1.773779 94.481995 0.734719
v 1.883033 94.481995 0.374554
v 1.596359 94.481995 1.066648
v 1.357592 94.481995 1.357587
v 1.066654 94.481995 1.596354
v 0.734725 94.481995 1.773774
v 0.374561 94.481995 1.883029
v 3.291513 87.963898 -0.000005
v 3.291513 87.963898 -0.000005
v 3.290422 87.963791 0.021154
v 3.290422 87.963791 0.021154
v 0.021274 94.492325 1.960998
v 0.021274 94.492325 1.960998
v 0.000003 94.492119 1.962115
v 0.000003 94.492119 1.962115
v 3.020745 87.975822 1.251228
v 3.206805 87.975822 0.637868
v 2.718599 87.975822 1.816504
v 2.311979 87.975822 2.311972
v 1.816512 87.975822 2.718593
v 1.251236 87.975822 3.020740
v 0.637876 87.975822 3.206801
v 1.952815 94.481995 0.020934
v 1.952815 94.481995 0.020934
v 3.297939 87.990875 0.020932
v 3.297939 87.990875 0.020932
v 0.020941 87.990875 3.297936
v 0.020941 87.990875 3.297936
v 0.020940 94.481995 1.952811
v 0.020940 94.481995 1.952811
v 3.285034 87.975822 0.020934
v 3.285034 87.975822 0.020934
v 0.020942 87.975822 3.285031
v 0.020942 87.975822 3.285031
v 1.917861 94.481995 0.020934
v 1.917861 94.481995 0.020934
v 0.020941 94.481995 1.917858
v 0.020941 94.481995 1.917858
v 3.267567 87.975822 0.020934
v 3.267567 87.975822 0.020934
v 0.020942 87.975822 3.267564
v 0.020942 87.975822 3.267564
v 0.000003 94.490448 1.908597
v 0.000003 94.490448 1.908597
v 0.020520 94.490189 1.907536
v 0.020520 94.490189 1.907536
v 3.259121 87.965706 0.020589
v 3.259121 87.965706 0.020589
v 3.260233 87.965492 -0.000005
v 3.260233 87.965492 -0.000005
v 0.000003 87.965492 3.260230
v 0.000003 87.965492 3.260230
v 0.020597 87.965706 3.259119
v 0.020597 87.965706 3.259119
vt 0.510406 0.804342
vt 0.500672 0.804020
vt 0.500672 0.803701
vt 0.570523 0.802223
vt 0.579937 0.800856
vt 0.570547 0.802529
vt 0.510406 0.804342
vt 0.520729 0.704236
vt 0.520427 0.805005
vt 0.530470 0.805262
vt 0.526689 0.704537
vt 0.532658 0.704596
vt 0.540517 0.805112
vt 0.538625 0.704414
vt 0.550553 0.804555
vt 0.544582 0.703990
vt 0.560560 0.803591
vt 0.570523 0.802223
vt 0.550518 0.703323
vt 0.500672 0.803701
vt 0.514790 0.703694
vt 0.520427 0.805005
vt 0.510370 0.804652
vt 0.530470 0.805262
vt 0.520397 0.805317
vt 0.540517 0.805112
vt 0.530453 0.805575
vt 0.550553 0.804555
vt 0.540513 0.805426
vt 0.560560 0.803591
vt 0.550561 0.804869
vt 0.560581 0.803904
vt 0.556058 0.702096
vt 0.579901 0.800548
vt 0.424458 0.709938
vt 0.446206 0.810667
vt 0.440762 0.811430
vt 0.520760 0.703684
vt 0.514790 0.703694
vt 0.514836 0.703158
vt 0.526698 0.703984
vt 0.520729 0.704236
vt 0.532658 0.704596
vt 0.526689 0.704537
vt 0.538589 0.703862
vt 0.532644 0.704044
vt 0.544523 0.703441
vt 0.538625 0.704414
vt 0.550420 0.702779
vt 0.544582 0.703990
vt 0.555884 0.701563
vt 0.550518 0.703323
vt 0.510359 0.804925
vt 0.500672 0.804020
vt 0.510370 0.804652
vt 0.570595 0.802794
vt 0.579937 0.800856
vt 0.579958 0.801124
vt 0.520397 0.805317
vt 0.520392 0.805590
vt 0.530453 0.805575
vt 0.530458 0.805849
vt 0.540513 0.805426
vt 0.540530 0.805699
vt 0.550561 0.804869
vt 0.550589 0.805141
vt 0.560581 0.803904
vt 0.560620 0.804175
vt 0.570547 0.802529
vt 0.509427 0.702562
vt 0.509313 0.703120
vt 0.493311 0.708605
vt 0.486504 0.811430
vt 0.481060 0.810667
vt 0.433955 0.708605
vt 0.452000 0.810088
vt 0.443821 0.707620
vt 0.457812 0.809740
vt 0.453719 0.707028
vt 0.463633 0.809624
vt 0.463633 0.706830
vt 0.469454 0.809740
vt 0.473547 0.707028
vt 0.475266 0.810088
vt 0.483445 0.707620
vt 0.509427 0.702562
vt 0.509109 0.703243
vt 0.509331 0.702342
vt 0.557604 0.703574
vt 0.604098 0.693050
vt 0.604234 0.693872
vt 0.652228 0.684862
vt 0.606522 0.692626
vt 0.652156 0.684052
vt 0.399672 0.685282
vt 0.451225 0.693593
vt 0.451009 0.694480
vt 0.555884 0.701563
vt 0.556257 0.702170
vt 0.556058 0.702096
vt 0.508327 0.705074
vt 0.454015 0.694032
vt 0.508581 0.704137
vt 0.604402 0.693470
vt 0.605307 0.692835
vt 0.605170 0.693335
vt 0.453674 0.694519
vt 0.452624 0.693809
vt 0.451500 0.694120
vt 0.452271 0.694288
vt 0.606289 0.693090
vt 0.454015 0.694032
vt 0.508738 0.703181
vt 0.508581 0.704137
vt 0.556581 0.702064
vt 0.604098 0.693050
vt 0.556743 0.702892
vt 0.454015 0.694032
vt 0.452801 0.692870
vt 0.454187 0.693078
vt 0.605138 0.692020
vt 0.604098 0.693050
vt 0.603934 0.692222
vt 0.509109 0.703243
vt 0.508980 0.702255
vt 0.509331 0.702342
vt 0.556272 0.701262
vt 0.556257 0.702170
vt 0.555958 0.701365
vt 0.452624 0.693809
vt 0.451401 0.692679
vt 0.452801 0.692870
vt 0.606355 0.691833
vt 0.605307 0.692835
vt 0.605138 0.692020
vt 0.398918 0.683257
vt 0.451225 0.693593
vt 0.398742 0.684171
vt 0.606522 0.692626
vt 0.652000 0.683257
vt 0.652156 0.684052
vt 0.454187 0.693078
vt 0.454168 0.692087
vt 0.508980 0.702255
vt 0.603934 0.692222
vt 0.556272 0.701262
vt 0.603848 0.691375
vt 0.579901 0.800548
vt 0.509313 0.703120
vt 0.556058 0.702096
vt 0.500681 0.804295
vt 0.502809 0.709938
vt 0.509313 0.703120
vt 0.556743 0.702892
vt 0.607291 0.693315
vt 0.398742 0.684171
vt 0.555958 0.701365
vt 0.454293 0.695074
vt 0.452791 0.694380
vt 0.605621 0.693247
vt 0.454187 0.693078
vt 0.603934 0.692222
vt 0.452624 0.693809
vt 0.605307 0.692835
vt 0.508738 0.703181
vt 0.556581 0.702064
vt 0.451225 0.693593
vt 0.606522 0.692626
vt 0.451401 0.692679
vt 0.606355 0.691833
vt 0.508738 0.703181
vt 0.453932 0.692590
vt 0.604101 0.691779
vt 0.556581 0.702064
vn 0.7446 -0.6509 0.1481
vn 0.7571 -0.6491 0.0745
vn 0.1480 -0.6507 0.7448
vn 0.0746 -0.6491 0.7570
vn 0.9604 0.2029 0.1910
vn 0.9047 0.2029 0.3747
vn 0.8142 0.2029 0.5440
vn 0.6924 0.2029 0.6924
vn 0.5440 0.2029 0.8142
vn 0.3747 0.2029 0.9047
vn 0.1910 0.2029 0.9604
vn 0.9747 0.2020 0.0960
vn 0.7014 -0.6509 0.2905
vn 0.6313 -0.6509 0.4216
vn 0.5369 -0.6509 0.5367
vn 0.4218 -0.6509 0.6312
vn 0.2905 -0.6509 0.7014
vn 0.0960 0.2020 0.9747
vn -0.9746 -0.2022 -0.0960
vn -0.9603 -0.2031 -0.1910
vn 0.0000 1.0000 0.0001
vn 0.0000 1.0000 -0.0000
vn 0.0000 1.0000 0.0002
vn 0.0000 -1.0000 -0.0000
vn 0.0000 -1.0000 -0.0002
vn 0.0000 -1.0000 0.0001
vn -0.1910 -0.2031 -0.9603
vn -0.0960 -0.2022 -0.9746
vn -0.9046 -0.2031 -0.3747
vn -0.8141 -0.2031 -0.5440
vn -0.6924 -0.2031 -0.6924
vn -0.5440 -0.2031 -0.8141
vn -0.3747 -0.2031 -0.9046
vn -0.0313 0.0080 0.9995
vn -0.0180 -0.0122 0.9998
vn -0.0319 0.0112 0.9994
vn 0.9997 -0.0194 -0.0163
vn 0.9992 0.0047 -0.0395
vn 0.9993 0.0039 -0.0372
vn 0.9995 0.0080 -0.0313
vn 0.9996 -0.0125 -0.0258
vn 0.9994 0.0112 -0.0319
vn -0.0258 -0.0125 0.9996
vn -0.0238 -0.0086 0.9997
vn 0.9998 -0.0122 -0.0180
vn -0.0163 -0.0194 0.9997
vn -0.0395 0.0047 0.9992
vn 0.9998 0.0094 -0.0151
vn 0.9999 0.0151 -0.0070
vn -0.0372 0.0039 0.9993
vn -0.0151 0.0093 0.9998
vn -0.0070 0.0151 0.9999
vn 0.9997 -0.0086 -0.0238
vn 0.9783 0.2030 0.0408
vn 0.9779 0.2029 0.0495
vn 0.0494 0.2029 0.9779
vn 0.0410 0.2030 0.9783
vn 0.7622 -0.6466 0.0317
vn 0.7614 -0.6474 0.0333
vn 0.7634 -0.6453 0.0293
vn 0.0333 -0.6475 0.7614
vn 0.0317 -0.6466 0.7621
vn 0.0291 -0.6453 0.7634
vn -0.0333 0.9994 -0.0059
vn -0.0380 0.9993 0.0057
vn -0.0401 0.9991 0.0108
vn 0.0054 0.9993 -0.0380
vn -0.0063 0.9994 -0.0331
vn 0.0106 0.9991 -0.0402
vn -0.0547 -0.9985 -0.0013
vn -0.0573 -0.9984 0.0023
vn -0.0509 -0.9987 -0.0065
vn 0.0015 -0.9984 -0.0573
vn -0.0022 -0.9985 -0.0548
vn -0.0077 -0.9987 -0.0511
vn -0.9778 -0.2026 -0.0529
vn -0.9780 -0.2026 -0.0507
vn -0.0507 -0.2026 -0.9780
vn -0.0531 -0.2026 -0.9778
vn -0.0000 -0.0000 -1.0000
vn -1.0000 -0.0000 0.0000
vn 0.7601 -0.6488 0.0357
vn 0.0359 -0.6488 0.7601
vn -0.0312 0.9995 -0.0109
vn -0.0113 0.9995 -0.0310
vn -0.0612 -0.9981 0.0076
vn 0.0071 -0.9981 -0.0611
usemtl Saturn_V_Main
s 1
f 18/35/17 153/36/18 148/37/18
f 24/38/19 155/39/20 122/40/19
f 91/41/21 103/42/22 90/43/22
f 92/44/23 103/42/22 105/45/23
f 92/44/23 106/46/24 93/47/24
f 93/47/24 107/48/25 94/49/25
f 94/49/25 108/50/26 95/51/26
f 96/52/27 108/50/26 109/53/27
f 147/54/28 104/55/21 91/41/21
f 19/56/29 117/57/17 18/35/17
f 20/58/30 116/59/29 19/56/29
f 21/60/31 118/61/30 20/58/30
f 22/62/32 119/63/31 21/60/31
f 23/64/33 120/65/32 22/62/32
f 24/38/19 121/66/33 23/64/33
f 96/52/27 151/67/34 149/68/34
f 61/69/35 25/70/36 59/71/35
f 123/72/37 43/73/38 124/74/38
f 125/75/38 44/76/37 123/72/37
f 125/75/38 46/77/38 45/78/38
f 127/79/37 46/77/38 126/80/38
f 128/81/39 47/82/37 127/79/37
f 129/83/37 48/84/39 128/81/39
f 160/85/38 49/86/37 129/83/37
f 139/87/40 65/88/40 50/89/40
f 144/90/41 156/91/42 163/92/42
f 139/87/40 51/93/42 138/94/42
f 138/94/42 52/95/40 140/96/40
f 140/96/40 53/97/42 141/98/42
f 141/98/42 54/99/42 142/100/42
f 142/100/42 55/101/41 143/102/41
f 143/102/41 56/103/41 144/90/41
f 158/104/38 43/73/38 63/105/38
f 38/106/43 60/107/44 31/108/43
f 32/109/36 26/110/45 25/70/36
f 33/111/45 27/112/46 26/110/45
f 34/113/46 28/114/47 27/112/46
f 35/115/47 29/116/48 28/114/47
f 36/117/48 30/118/49 29/116/48
f 37/119/49 31/108/43 30/118/49
f 157/120/50 88/121/51 86/122/52
f 152/123/53 99/124/54 150/125/55
f 159/126/56 175/127/57 167/128/58
f 157/129/50 169/130/59 161/131/60
f 159/132/56 134/133/61 152/134/53
f 146/135/62 113/136/63 88/137/51
f 150/138/55 97/139/64 66/140/65
f 57/141/66 133/142/67 113/136/63
f 161/143/60 133/142/67 154/144/68
f 164/145/69 97/139/64 175/127/57
f 112/146/70 83/147/71 89/148/71
f 136/149/72 100/150/73 135/151/72
f 40/152/74 130/153/75 111/154/76
f 101/155/77 69/156/78 114/157/79
f 41/158/80 84/159/81 87/160/82
f 165/161/83 68/162/84 168/163/85
f 70/164/86 171/165/87 131/166/88
f 173/167/89 73/168/90 102/169/91
f 85/170/92 78/171/93 75/172/92
f 81/173/94 166/174/95 77/175/95
f 39/176/96 79/177/96 74/178/96
f 67/179/97 76/180/97 80/181/97
f 18/35/17 117/57/17 153/36/18
f 24/38/19 58/182/20 155/39/20
f 91/41/21 104/55/21 103/42/22
f 92/44/23 90/43/22 103/42/22
f 92/44/23 105/45/23 106/46/24
f 93/47/24 106/46/24 107/48/25
f 94/49/25 107/48/25 108/50/26
f 96/52/27 95/51/26 108/50/26
f 147/54/28 145/183/28 104/55/21
f 19/56/29 116/59/29 117/57/17
f 20/58/30 118/61/30 116/59/29
f 21/60/31 119/63/31 118/61/30
f 22/62/32 120/65/32 119/63/31
f 23/64/33 121/66/33 120/65/32
f 24/38/19 122/40/19 121/66/33
f 96/52/27 109/53/27 151/67/34
f 61/69/35 32/109/36 25/70/36
f 123/72/37 44/76/37 43/73/38
f 125/75/38 45/78/38 44/76/37
f 125/75/38 126/80/38 46/77/38
f 127/79/37 47/82/37 46/77/38
f 128/81/39 48/84/39 47/82/37
f 129/83/37 49/86/37 48/84/39
f 160/85/38 64/184/38 49/86/37
f 139/87/40 162/185/40 65/88/40
f 144/90/41 56/103/41 156/91/42
f 139/87/40 50/89/40 51/93/42
f 138/94/42 51/93/42 52/95/40
f 140/96/40 52/95/40 53/97/42
f 141/98/42 53/97/42 54/99/42
f 142/100/42 54/99/42 55/101/41
f 143/102/41 55/101/41 56/103/41
f 158/104/38 124/74/38 43/73/38
f 38/106/43 62/186/44 60/107/44
f 32/109/36 33/111/45 26/110/45
f 33/111/45 34/113/46 27/112/46
f 34/113/46 35/115/47 28/114/47
f 35/115/47 36/117/48 29/116/48
f 36/117/48 37/119/49 30/118/49
f 37/119/49 38/106/43 31/108/43
f 157/120/50 146/187/62 88/121/51
f 152/123/53 134/188/61 99/124/54
f 159/126/56 164/189/69 175/127/57
f 157/129/50 86/190/52 169/130/59
f 159/132/56 167/191/58 134/133/61
f 146/135/62 57/192/66 113/136/63
f 150/138/55 99/124/54 97/139/64
f 57/141/66 154/193/68 133/142/67
f 161/143/60 169/130/59 133/142/67
f 164/145/69 66/194/65 97/139/64
f 112/146/70 110/195/70 83/147/71
f 136/149/72 115/196/73 100/150/73
f 40/152/74 132/197/98 130/153/75
f 101/155/77 98/198/99 69/156/78
f 41/158/80 82/199/100 84/159/81
f 165/161/83 137/200/101 68/162/84
f 70/164/86 170/201/102 171/165/87
f 173/167/89 176/202/103 73/168/90
f 85/170/92 172/203/93 78/171/93
f 81/173/94 174/204/94 166/174/95
f 74/178/96 42/205/96 39/176/96
f 39/176/96 71/206/96 79/177/96
f 80/181/97 72/207/97 67/179/97
f 67/179/97 17/208/97 76/180/97
