# Blender v3.1.2 OBJ File: 'Saturn V.blend'
# www.blender.org
mtllib Saturn V_4_4.mtl
o LEM_Fairing_Hinge.000_Cylinder.019
v 2.643502 87.996544 -1.899348
v 1.899347 87.996544 -2.643502
v 2.633269 87.990547 -1.889115
v 1.889115 87.990547 -2.633270
v 2.629031 87.976074 -1.884876
v 1.884876 87.976074 -2.629031
v 2.633270 87.961609 -1.889115
v 1.889115 87.961609 -2.633270
v 2.643502 87.955612 -1.899348
v 1.899347 87.955612 -2.643502
v 2.653734 87.961609 -1.909580
v 1.909580 87.961609 -2.653735
v 2.657973 87.976074 -1.913819
v 1.913818 87.976074 -2.657973
v 2.653734 87.990547 -1.909580
v 1.909580 87.990547 -2.653735
vt 1.000000 1.000000
vt 0.875000 0.500000
vt 1.000000 0.500000
vt 0.750000 1.000000
vt 0.750000 0.500000
vt 0.625000 0.500000
vt 0.625000 1.000000
vt 0.500000 0.500000
vt 0.500000 1.000000
vt 0.375000 0.500000
vt 0.375000 1.000000
vt 0.250000 0.500000
vt 0.010000 0.250000
vt 0.250000 0.010000
vt 0.490000 0.250000
vt 0.250000 1.000000
vt 0.125000 0.500000
vt 0.000000 1.000000
vt 0.000000 0.500000
vt 0.580294 0.419706
vt 0.919706 0.419706
vt 0.919706 0.080294
vt 0.875000 1.000000
vt 0.419706 0.419706
vt 0.250000 0.490000
vt 0.080294 0.419706
vt 0.080294 0.080294
vt 0.419706 0.080294
vt 0.125000 1.000000
vt 0.750000 0.490000
vt 0.990000 0.250000
vt 0.750000 0.010000
vt 0.580294 0.080294
vt 0.510000 0.250000
vn -0.4457 0.7763 -0.4457
vn 0.0575 0.5490 0.8339
vn 0.4455 0.7764 0.4458
vn -0.9946 -0.0000 0.1036
vn -0.1033 -0.0001 0.9947
vn 0.0575 -0.5489 0.8339
vn -0.8339 -0.5489 -0.0572
vn 0.4457 -0.7764 0.4456
vn -0.4457 -0.7765 -0.4454
vn 0.8339 -0.5489 0.0573
vn -0.0573 -0.5491 -0.8338
vn 0.9946 -0.0000 -0.1034
vn 0.1034 -0.0001 -0.9946
vn 0.8339 0.5489 0.0577
vn -0.8340 0.5487 -0.0571
vn -0.0575 0.5489 -0.8339
usemtl None
s 1
f 2/1/1 3/2/2 1/3/3
f 3/2/2 6/4/4 5/5/5
f 6/4/4 7/6/6 5/5/5
f 8/7/7 9/8/8 7/6/6
f 10/9/9 11/10/10 9/8/8
f 12/11/11 13/12/12 11/10/10
f 14/13/13 10/14/9 6/15/4
f 14/16/13 15/17/14 13/12/12
f 15/17/14 2/18/1 1/19/3
f 15/20/14 3/21/2 7/22/6
f 2/1/1 4/23/15 3/2/2
f 3/2/2 4/23/15 6/4/4
f 6/4/4 8/7/7 7/6/6
f 8/7/7 10/9/9 9/8/8
f 10/9/9 12/11/11 11/10/10
f 12/11/11 14/16/13 13/12/12
f 6/15/4 4/24/15 2/25/1
f 2/25/1 16/26/16 14/13/13
f 14/13/13 12/27/11 10/14/9
f 10/14/9 8/28/7 6/15/4
f 6/15/4 2/25/1 14/13/13
f 14/16/13 16/29/16 15/17/14
f 15/17/14 16/29/16 2/18/1
f 15/20/14 1/30/3 3/21/2
f 3/21/2 5/31/5 7/22/6
f 7/22/6 9/32/8 15/20/14
f 9/32/8 11/33/10 15/20/14
f 11/33/10 13/34/12 15/20/14
o LEM_Fairing.003_Cylinder.018
v 1.962118 94.492119 -0.000003
v 0.643795 87.990875 -3.236594
v 1.262853 87.990875 -3.048805
v 1.833380 87.990875 -2.743853
v 2.333451 87.990875 -2.333456
v 2.743849 87.990875 -1.833386
v 3.048803 87.990875 -1.262860
v 3.236592 87.990875 -0.643802
v 0.374557 94.481995 -1.883033
v 0.734721 94.481995 -1.773779
v 1.066651 94.481995 -1.596359
v 1.357589 94.481995 -1.357593
v 1.596357 94.481995 -1.066655
v 1.773777 94.481995 -0.734725
v 1.883032 94.481995 -0.374561
v 0.637870 87.975822 -3.206805
v 1.251230 87.975822 -3.020745
v 1.816506 87.975822 -2.718600
v 2.311975 87.975822 -2.311980
v 2.718596 87.975822 -1.816512
v 3.020742 87.975822 -1.251237
v 3.206804 87.975822 -0.637877
v -0.000002 87.987625 -3.311568
v 0.021455 87.987549 -3.310685
v 0.021270 94.492325 -1.961001
v -0.000001 94.492119 -1.962118
v 0.381376 94.481995 -1.917315
v 0.748097 94.481995 -1.806071
v 1.086070 94.481995 -1.625422
v 1.382305 94.481995 -1.382308
v 1.625419 94.481995 -1.086074
v 1.806070 94.481995 -0.748101
v 1.917314 94.481995 -0.381380
v 0.641278 87.975822 -3.223937
v 1.257915 87.975822 -3.036883
v 1.826210 87.975822 -2.733123
v 2.324326 87.975822 -2.324331
v 2.733119 87.975822 -1.826216
v 3.036880 87.975822 -1.257921
v 3.223935 87.975822 -0.641285
v 0.020935 87.990875 -3.297939
v 3.297939 87.990875 -0.020941
v 0.020937 94.481995 -1.917861
v 1.917861 94.481995 -0.020941
v 0.020936 87.975822 -3.267567
v 3.267567 87.975822 -0.020942
v 0.020936 94.481995 -1.952814
v 1.952814 94.481995 -0.020941
v 0.020936 87.975822 -3.285034
v 3.285034 87.975822 -0.020943
v 3.311568 87.987625 -0.000004
v 1.961001 94.492325 -0.021275
v 3.310685 87.987549 -0.021461
v 0.021156 87.963791 -3.290422
v -0.000002 87.963898 -3.291513
v 3.291513 87.963898 -0.000004
v 3.290422 87.963791 -0.021162
v -0.000001 94.490448 -1.908600
v 0.020516 94.490189 -1.907539
v 1.908600 94.490448 -0.000003
v 1.907539 94.490189 -0.020520
v 0.020591 87.965706 -3.259121
v -0.000002 87.965492 -3.260233
v 3.260233 87.965492 -0.000004
v 3.259121 87.965706 -0.020598
v -0.000001 94.492119 -1.962118
v -0.000001 94.492119 -1.962118
v -0.000001 94.490448 -1.908600
v -0.000001 94.490448 -1.908600
v 0.020516 94.490189 -1.907539
v 0.020516 94.490189 -1.907539
v 0.021270 94.492325 -1.961001
v 0.021270 94.492325 -1.961001
v 1.262853 87.990875 -3.048805
v 0.643795 87.990875 -3.236594
v 1.833380 87.990875 -2.743853
v 2.333451 87.990875 -2.333456
v 2.743849 87.990875 -1.833386
v 3.048803 87.990875 -1.262860
v 3.236592 87.990875 -0.643802
v 3.290422 87.963791 -0.021162
v 3.290422 87.963791 -0.021162
v 3.310685 87.987549 -0.021461
v 3.310685 87.987549 -0.021461
v 3.291513 87.963898 -0.000004
v 3.291513 87.963898 -0.000004
v 0.748097 94.481995 -1.806071
v 0.381376 94.481995 -1.917315
v 1.086070 94.481995 -1.625422
v 1.382305 94.481995 -1.382308
v 1.625419 94.481995 -1.086074
v 1.806070 94.481995 -0.748101
v 1.917314 94.481995 -0.381380
v -0.000002 87.987625 -3.311568
v -0.000002 87.987625 -3.311568
v 0.021455 87.987549 -3.310685
v 0.021455 87.987549 -3.310685
v 3.311568 87.987625 -0.000004
v 3.311568 87.987625 -0.000004
v 1.257915 87.975822 -3.036883
v 0.641278 87.975822 -3.223937
v 1.826210 87.975822 -2.733123
v 2.324326 87.975822 -2.324331
v 2.733119 87.975822 -1.826216
v 3.036880 87.975822 -1.257921
v 3.223935 87.975822 -0.641285
v 0.734721 94.481995 -1.773779
v 0.374557 94.481995 -1.883033
v 1.066651 94.481995 -1.596359
v 1.357589 94.481995 -1.357593
v 1.596357 94.481995 -1.066655
v 1.773777 94.481995 -0.734725
v 1.883032 94.481995 -0.374561
v -0.000002 87.963898 -3.291513
v -0.000002 87.963898 -3.291513
v 0.021156 87.963791 -3.290422
v 0.021156 87.963791 -3.290422
v 1.961001 94.492325 -0.021275
v 1.961001 94.492325 -0.021275
v 1.962118 94.492119 -0.000003
v 1.962118 94.492119 -0.000003
v 1.251230 87.975822 -3.020745
v 0.637870 87.975822 -3.206805
v 1.816506 87.975822 -2.718600
v 2.311975 87.975822 -2.311980
v 2.718596 87.975822 -1.816512
v 3.020742 87.975822 -1.251237
v 3.206804 87.975822 -0.637877
v 0.020936 94.481995 -1.952814
v 0.020936 94.481995 -1.952814
v 0.020935 87.990875 -3.297939
v 0.020935 87.990875 -3.297939
v 3.297939 87.990875 -0.020941
v 3.297939 87.990875 -0.020941
v 1.952814 94.481995 -0.020941
v 1.952814 94.481995 -0.020941
v 0.020936 87.975822 -3.285034
v 0.020936 87.975822 -3.285034
v 3.285034 87.975822 -0.020943
v 3.285034 87.975822 -0.020943
v 0.020937 94.481995 -1.917861
v 0.020937 94.481995 -1.917861
v 1.917861 94.481995 -0.020941
v 1.917861 94.481995 -0.020941
v 0.020936 87.975822 -3.267567
v 0.020936 87.975822 -3.267567
v 3.267567 87.975822 -0.020942
v 3.267567 87.975822 -0.020942
v 1.908600 94.490448 -0.000003
v 1.908600 94.490448 -0.000003
v 1.907539 94.490189 -0.020520
v 1.907539 94.490189 -0.020520
v 0.020591 87.965706 -3.259121
v 0.020591 87.965706 -3.259121
v -0.000002 87.965492 -3.260233
v -0.000002 87.965492 -3.260233
v 3.260233 87.965492 -0.000004
v 3.260233 87.965492 -0.000004
v 3.259121 87.965706 -0.020598
v 3.259121 87.965706 -0.020598
vt 0.510406 0.804342
vt 0.500672 0.804020
vt 0.500672 0.803701
vt 0.570523 0.802223
vt 0.579937 0.800856
vt 0.570547 0.802529
vt 0.510406 0.804342
vt 0.520729 0.704236
vt 0.520427 0.805005
vt 0.530470 0.805262
vt 0.526689 0.704537
vt 0.532658 0.704596
vt 0.540517 0.805112
vt 0.538625 0.704414
vt 0.550553 0.804555
vt 0.544582 0.703990
vt 0.560560 0.803591
vt 0.570523 0.802223
vt 0.550518 0.703323
vt 0.500672 0.803701
vt 0.514790 0.703694
vt 0.520427 0.805005
vt 0.510370 0.804652
vt 0.530470 0.805262
vt 0.520397 0.805317
vt 0.540517 0.805112
vt 0.530453 0.805575
vt 0.550553 0.804555
vt 0.540513 0.805426
vt 0.560560 0.803591
vt 0.550561 0.804869
vt 0.560581 0.803904
vt 0.556058 0.702096
vt 0.579901 0.800548
vt 0.424458 0.709938
vt 0.446206 0.810667
vt 0.440762 0.811430
vt 0.520760 0.703684
vt 0.514790 0.703694
vt 0.514836 0.703158
vt 0.526698 0.703984
vt 0.520729 0.704236
vt 0.532658 0.704596
vt 0.526689 0.704537
vt 0.538589 0.703862
vt 0.532644 0.704044
vt 0.544523 0.703441
vt 0.538625 0.704414
vt 0.550420 0.702779
vt 0.544582 0.703990
vt 0.555884 0.701563
vt 0.550518 0.703323
vt 0.510359 0.804925
vt 0.500672 0.804020
vt 0.510370 0.804652
vt 0.570595 0.802794
vt 0.579937 0.800856
vt 0.579958 0.801124
vt 0.520397 0.805317
vt 0.520392 0.805590
vt 0.530453 0.805575
vt 0.530458 0.805849
vt 0.540513 0.805426
vt 0.540530 0.805699
vt 0.550561 0.804869
vt 0.550589 0.805141
vt 0.560581 0.803904
vt 0.560620 0.804175
vt 0.570547 0.802529
vt 0.509427 0.702562
vt 0.509313 0.703120
vt 0.493311 0.708605
vt 0.486504 0.811430
vt 0.481060 0.810667
vt 0.433955 0.708605
vt 0.452000 0.810088
vt 0.443821 0.707620
vt 0.457812 0.809740
vt 0.453719 0.707028
vt 0.463633 0.809624
vt 0.463633 0.706830
vt 0.469454 0.809740
vt 0.473547 0.707028
vt 0.475266 0.810088
vt 0.483445 0.707620
vt 0.509427 0.702562
vt 0.509109 0.703243
vt 0.509331 0.702342
vt 0.557604 0.703574
vt 0.604098 0.693050
vt 0.604234 0.693872
vt 0.652228 0.684862
vt 0.606522 0.692626
vt 0.652156 0.684052
vt 0.399672 0.685282
vt 0.451225 0.693593
vt 0.451009 0.694480
vt 0.555884 0.701563
vt 0.556257 0.702170
vt 0.556058 0.702096
vt 0.508327 0.705074
vt 0.454015 0.694032
vt 0.508581 0.704137
vt 0.604402 0.693470
vt 0.605307 0.692835
vt 0.605170 0.693335
vt 0.453674 0.694519
vt 0.452624 0.693809
vt 0.451500 0.694120
vt 0.452271 0.694288
vt 0.606289 0.693090
vt 0.454015 0.694032
vt 0.508738 0.703181
vt 0.508581 0.704137
vt 0.556581 0.702064
vt 0.604098 0.693050
vt 0.556743 0.702892
vt 0.454015 0.694032
vt 0.452801 0.692870
vt 0.454187 0.693078
vt 0.605138 0.692020
vt 0.604098 0.693050
vt 0.603934 0.692222
vt 0.509109 0.703243
vt 0.508980 0.702255
vt 0.509331 0.702342
vt 0.556272 0.701262
vt 0.556257 0.702170
vt 0.555958 0.701365
vt 0.452624 0.693809
vt 0.451401 0.692679
vt 0.452801 0.692870
vt 0.606355 0.691833
vt 0.605307 0.692835
vt 0.605138 0.692020
vt 0.398918 0.683257
vt 0.451225 0.693593
vt 0.398742 0.684171
vt 0.606522 0.692626
vt 0.652000 0.683257
vt 0.652156 0.684052
vt 0.454187 0.693078
vt 0.454168 0.692087
vt 0.508980 0.702255
vt 0.603934 0.692222
vt 0.556272 0.701262
vt 0.603848 0.691375
vt 0.579901 0.800548
vt 0.509313 0.703120
vt 0.556058 0.702096
vt 0.500681 0.804295
vt 0.502809 0.709938
vt 0.509313 0.703120
vt 0.556743 0.702892
vt 0.607291 0.693315
vt 0.398742 0.684171
vt 0.555958 0.701365
vt 0.454293 0.695074
vt 0.452791 0.694380
vt 0.605621 0.693247
vt 0.454187 0.693078
vt 0.603934 0.692222
vt 0.452624 0.693809
vt 0.605307 0.692835
vt 0.508738 0.703181
vt 0.556581 0.702064
vt 0.451225 0.693593
vt 0.606522 0.692626
vt 0.451401 0.692679
vt 0.606355 0.691833
vt 0.508738 0.703181
vt 0.453932 0.692590
vt 0.604101 0.691779
vt 0.556581 0.702064
vn 0.1481 -0.6507 -0.7447
vn 0.0746 -0.6492 -0.7569
vn 0.7446 -0.6509 -0.1481
vn 0.7571 -0.6490 -0.0745
vn 0.1910 0.2029 -0.9604
vn 0.3747 0.2029 -0.9047
vn 0.5440 0.2029 -0.8142
vn 0.6924 0.2029 -0.6924
vn 0.8142 0.2029 -0.5440
vn 0.9047 0.2029 -0.3747
vn 0.9604 0.2029 -0.1910
vn 0.0960 0.2020 -0.9747
vn 0.2906 -0.6509 -0.7013
vn 0.4218 -0.6509 -0.6312
vn 0.2906 -0.6509 -0.7014
vn 0.5368 -0.6508 -0.5370
vn 0.4218 -0.6509 -0.6313
vn 0.6313 -0.6510 -0.4215
vn 0.7014 -0.6508 -0.2906
vn 0.9747 0.2020 -0.0960
vn -0.0960 -0.2022 0.9746
vn -0.1910 -0.2031 0.9603
vn 0.0000 1.0000 -0.0001
vn 0.0000 1.0000 0.0000
vn 0.0000 -1.0000 0.0003
vn 0.0000 -1.0000 -0.0009
vn 0.0000 -1.0000 0.0004
vn 0.0000 -1.0000 -0.0000
vn 0.0000 -1.0000 0.0001
vn 0.0000 -1.0000 -0.0002
vn 0.0000 -1.0000 -0.0003
vn -0.9603 -0.2031 0.1910
vn -0.9746 -0.2022 0.0960
vn -0.3747 -0.2031 0.9046
vn -0.5440 -0.2031 0.8141
vn -0.6924 -0.2031 0.6924
vn -0.8141 -0.2031 0.5440
vn -0.9046 -0.2031 0.3747
vn 0.9995 0.0080 0.0313
vn 0.9998 -0.0122 0.0180
vn 0.9994 0.0112 0.0319
vn -0.0163 -0.0194 -0.9997
vn -0.0395 0.0047 -0.9992
vn -0.0372 0.0039 -0.9993
vn -0.0313 0.0080 -0.9995
vn -0.0258 -0.0125 -0.9996
vn -0.0319 0.0112 -0.9994
vn 0.9996 -0.0125 0.0258
vn 0.9997 -0.0085 0.0238
vn -0.0180 -0.0122 -0.9998
vn 0.9997 -0.0194 0.0163
vn 0.9992 0.0047 0.0395
vn -0.0151 0.0093 -0.9998
vn -0.0070 0.0151 -0.9999
vn 0.9993 0.0039 0.0372
vn 0.9998 0.0094 0.0151
vn 0.9999 0.0151 0.0070
vn -0.0238 -0.0086 -0.9997
vn 0.0410 0.2030 -0.9783
vn 0.0493 0.2029 -0.9780
vn 0.0494 0.2029 -0.9780
vn 0.9780 0.2029 -0.0494
vn 0.9783 0.2030 -0.0409
vn 0.9779 0.2029 -0.0494
vn 0.0317 -0.6466 -0.7622
vn 0.0333 -0.6475 -0.7614
vn 0.0291 -0.6452 -0.7635
vn 0.7614 -0.6474 -0.0333
vn 0.7622 -0.6466 -0.0318
vn 0.7634 -0.6452 -0.0293
vn -0.0063 0.9994 0.0332
vn 0.0054 0.9993 0.0380
vn 0.0106 0.9991 0.0401
vn -0.0380 0.9993 -0.0053
vn -0.0333 0.9994 0.0061
vn -0.0401 0.9991 -0.0104
vn -0.0022 -0.9985 0.0551
vn 0.0015 -0.9983 0.0576
vn -0.0077 -0.9986 0.0515
vn -0.0573 -0.9984 -0.0020
vn -0.0547 -0.9985 0.0016
vn -0.0509 -0.9987 0.0068
vn -0.0531 -0.2026 0.9778
vn -0.0507 -0.2026 0.9780
vn -0.9780 -0.2026 0.0506
vn -0.9778 -0.2026 0.0530
vn -1.0000 -0.0000 0.0000
vn 0.0000 -0.0000 1.0000
vn 0.0359 -0.6489 -0.7601
vn 0.7601 -0.6488 -0.0357
vn -0.0113 0.9995 0.0311
vn -0.0312 0.9995 0.0110
vn 0.0071 -0.9981 0.0612
vn -0.0612 -0.9981 -0.0074
usemtl Saturn_V_Main
s 1
f 18/35/17 153/36/18 148/37/18
f 24/38/19 155/39/20 122/40/19
f 91/41/21 103/42/22 90/43/22
f 92/44/23 103/42/22 105/45/23
f 92/44/23 106/46/24 93/47/24
f 93/47/24 107/48/25 94/49/25
f 94/49/25 108/50/26 95/51/26
f 96/52/27 108/50/26 109/53/27
f 147/54/28 104/55/21 91/41/21
f 19/56/29 117/57/17 18/35/17
f 20/58/30 116/59/31 19/56/29
f 21/60/32 118/61/33 20/58/30
f 22/62/34 119/63/32 21/60/32
f 23/64/35 120/65/34 22/62/34
f 24/38/19 121/66/35 23/64/35
f 96/52/27 151/67/36 149/68/36
f 61/69/37 25/70/38 59/71/37
f 123/72/39 43/73/40 124/74/40
f 125/75/40 44/76/39 123/72/39
f 125/75/40 46/77/40 45/78/40
f 127/79/40 46/77/40 126/80/40
f 128/81/40 47/82/40 127/79/40
f 129/83/40 48/84/40 128/81/40
f 160/85/40 49/86/40 129/83/40
f 139/87/41 65/88/42 50/89/43
f 144/90/44 156/91/44 163/92/44
f 139/87/41 51/93/45 138/94/45
f 138/94/45 52/95/46 140/96/46
f 140/96/46 53/97/47 141/98/47
f 141/98/47 54/99/46 142/100/46
f 142/100/46 55/101/45 143/102/45
f 143/102/45 56/103/44 144/90/44
f 158/104/40 43/73/40 63/105/40
f 38/106/48 60/107/49 31/108/48
f 32/109/38 26/110/50 25/70/38
f 33/111/50 27/112/51 26/110/50
f 34/113/51 28/114/52 27/112/51
f 35/115/52 29/116/53 28/114/52
f 36/117/53 30/118/54 29/116/53
f 37/119/54 31/108/48 30/118/54
f 157/120/55 88/121/56 86/122/57
f 152/123/58 99/124/59 150/125/60
f 159/126/61 175/127/62 167/128/63
f 157/129/55 169/130/64 161/131/65
f 159/132/61 134/133/66 152/134/58
f 146/135/67 113/136/68 88/137/56
f 150/138/60 97/139/69 66/140/70
f 57/141/71 133/142/72 113/136/68
f 161/143/65 133/142/72 154/144/73
f 164/145/74 97/139/69 175/127/62
f 112/146/75 83/147/76 89/148/77
f 136/149/78 100/150/79 135/151/80
f 40/152/81 130/153/82 111/154/83
f 101/155/84 69/156/85 114/157/86
f 41/158/87 84/159/88 87/160/89
f 165/161/90 68/162/91 168/163/92
f 70/164/93 171/165/94 131/166/95
f 173/167/96 73/168/97 102/169/98
f 85/170/99 78/171/100 75/172/99
f 81/173/101 166/174/102 77/175/102
f 39/176/103 79/177/103 74/178/103
f 67/179/104 76/180/104 80/181/104
f 18/35/17 117/57/17 153/36/18
f 24/38/19 58/182/20 155/39/20
f 91/41/21 104/55/21 103/42/22
f 92/44/23 90/43/22 103/42/22
f 92/44/23 105/45/23 106/46/24
f 93/47/24 106/46/24 107/48/25
f 94/49/25 107/48/25 108/50/26
f 96/52/27 95/51/26 108/50/26
f 147/54/28 145/183/28 104/55/21
f 19/56/29 116/59/31 117/57/17
f 20/58/30 118/61/33 116/59/31
f 21/60/32 119/63/32 118/61/33
f 22/62/34 120/65/34 119/63/32
f 23/64/35 121/66/35 120/65/34
f 24/38/19 122/40/19 121/66/35
f 96/52/27 109/53/27 151/67/36
f 61/69/37 32/109/38 25/70/38
f 123/72/39 44/76/39 43/73/40
f 125/75/40 45/78/40 44/76/39
f 125/75/40 126/80/40 46/77/40
f 127/79/40 47/82/40 46/77/40
f 128/81/40 48/84/40 47/82/40
f 129/83/40 49/86/40 48/84/40
f 160/85/40 64/184/40 49/86/40
f 139/87/41 162/185/42 65/88/42
f 144/90/44 56/103/44 156/91/44
f 139/87/41 50/89/43 51/93/45
f 138/94/45 51/93/45 52/95/46
f 140/96/46 52/95/46 53/97/47
f 141/98/47 53/97/47 54/99/46
f 142/100/46 54/99/46 55/101/45
f 143/102/45 55/101/45 56/103/44
f 158/104/40 124/74/40 43/73/40
f 38/106/48 62/186/49 60/107/49
f 32/109/38 33/111/50 26/110/50
f 33/111/50 34/113/51 27/112/51
f 34/113/51 35/115/52 28/114/52
f 35/115/52 36/117/53 29/116/53
f 36/117/53 37/119/54 30/118/54
f 37/119/54 38/106/48 31/108/48
f 157/120/55 146/187/67 88/121/56
f 152/123/58 134/188/66 99/124/59
f 159/126/61 164/189/74 175/127/62
f 157/129/55 86/190/57 169/130/64
f 159/132/61 167/191/63 134/133/66
f 146/135/67 57/192/71 113/136/68
f 150/138/60 99/124/59 97/139/69
f 57/141/71 154/193/73 133/142/72
f 161/143/65 169/130/64 133/142/72
f 164/145/74 66/194/70 97/139/69
f 112/146/75 110/195/75 83/147/76
f 136/149/78 115/196/79 100/150/79
f 40/152/81 132/197/105 130/153/82
f 101/155/84 98/198/106 69/156/85
f 41/158/87 82/199/107 84/159/88
f 165/161/90 137/200/108 68/162/91
f 70/164/93 170/201/109 171/165/94
f 173/167/96 176/202/110 73/168/97
f 85/170/99 172/203/100 78/171/100
f 81/173/101 174/204/101 166/174/102
f 74/178/103 42/205/103 39/176/103
f 39/176/103 71/206/103 79/177/103
f 80/181/104 72/207/104 67/179/104
f 67/179/104 17/208/104 76/180/104
