# Blender v3.1.2 OBJ File: 'untitled.blend'
# www.blender.org
mtllib cloud.mtl
o Cloud_Mesh.002
v -0.566283 1.523368 -0.640369
v -0.928128 1.311995 -0.213477
v -0.425574 1.706014 -0.429022
v -0.202747 1.918914 0.071953
v 0.386294 1.667107 0.206842
v 0.164503 1.654525 -0.414036
v 0.038823 1.565073 -0.682072
v 0.554219 1.569318 -0.221908
v 0.329137 0.818786 -0.654283
v -0.213576 0.647387 -0.803159
v -0.700529 0.617644 -0.582471
v 0.101886 0.025919 -1.268522
v -0.992704 0.236158 -0.606616
v -0.404313 -0.156933 -1.066186
v -1.288908 -0.139343 -0.486736
v -1.012746 0.737587 -0.144340
v -1.453737 0.239931 -0.089663
v -1.666291 -0.110310 0.289802
v -1.541404 -0.561730 -0.033699
v -1.089873 -0.500100 -0.563205
v -0.966109 -1.115921 -0.237773
v -0.544572 -0.917733 -0.642736
v 0.800438 -0.004160 0.794841
v 1.218308 -0.847841 0.351789
v 1.520207 -0.233282 -0.045288
v 0.431971 -0.794208 0.824090
v -0.712091 -0.135319 1.286619
v -1.123086 -0.567148 1.056990
v -0.258277 -0.369325 1.399867
v -1.401520 -0.351301 0.924974
v -1.513740 -0.577888 0.681443
v -1.492360 -0.718996 0.407838
v -0.862395 0.779371 0.630551
v -1.496220 0.258860 0.568516
v -1.005369 0.250408 1.043464
v -1.024329 0.802623 0.236488
v -0.791030 1.529215 0.489691
v 0.655640 0.896861 -0.251768
v 1.524048 0.122213 -0.015397
v 1.277835 0.125201 -0.657031
v 0.691524 0.811563 0.280200
v -0.027345 1.707142 0.605756
v 0.020365 1.276965 0.852484
v 0.501312 1.562291 0.477397
v -0.549368 1.322731 0.779501
v 0.452670 0.546103 0.821344
v -0.331091 0.217603 1.179917
v 1.226698 -0.890977 -0.271793
v 1.225470 -1.567546 -0.271578
v 0.805538 -0.853342 -0.694520
v 0.654606 -1.786595 0.349096
v 0.536839 -2.056675 -0.207119
v -0.634172 -1.127755 0.773432
v -0.722509 -1.815993 0.450757
v -0.190372 -1.948562 0.752694
v -0.342984 -2.048508 -0.583737
v -0.332669 -1.601712 -0.770243
v 0.249947 -1.785613 -0.700164
v -0.468199 -2.262095 -0.025259
v 0.128205 -2.334399 -0.051586
v -0.308355 -2.259219 0.344874
v -0.779092 -1.796979 -0.350539
v -0.099791 -0.921589 0.963760
v -0.090553 -1.611624 0.860583
v -1.041840 -1.144478 0.405981
v -0.853190 -1.775865 0.125667
v 1.277594 -0.241859 -0.624774
v -0.228871 -0.785626 -0.757254
v -0.896777 1.543233 0.144146
v -0.128930 0.615406 0.901550
v 0.354597 -1.911183 0.661700
v -0.593403 0.845016 0.785969
vn -0.6555 0.7298 -0.1943
vn 0.4198 0.8919 -0.1680
vn 0.6479 0.2249 -0.7277
vn 0.2464 0.0599 -0.9673
vn -0.0784 0.1516 -0.9853
vn -0.4129 0.0030 -0.9108
vn -0.4169 0.3997 -0.8164
vn -0.5386 0.1608 -0.8271
vn -0.6421 0.5056 -0.5763
vn -0.8962 0.0692 -0.4381
vn -0.8964 0.0676 -0.4381
vn -0.8963 0.0691 -0.4380
vn -0.8965 0.0660 -0.4381
vn -0.7195 -0.2605 -0.6438
vn -0.6518 -0.4526 -0.6085
vn -0.4774 -0.4836 -0.7336
vn 0.7642 0.0405 0.6437
vn 0.4945 -0.1993 0.8460
vn -0.3259 -0.1831 0.9275
vn -0.6283 -0.4037 0.6651
vn -0.9184 0.0308 0.3945
vn -0.9767 -0.2120 0.0330
vn -0.5504 0.6011 0.5795
vn -0.9099 0.1586 0.3833
vn 0.6813 0.6850 -0.2582
vn 0.4973 0.6824 -0.5358
vn 0.3651 0.5025 -0.7837
vn 0.9876 0.1508 -0.0424
vn 0.6519 0.7543 0.0770
vn 0.3309 0.4968 0.8023
vn 0.3082 0.9239 0.2269
vn -0.0719 0.4902 0.8686
vn 0.4947 0.2573 0.8301
vn -0.0564 0.3442 0.9372
vn 0.9999 -0.0018 0.0136
vn 0.7084 -0.0015 -0.7059
vn 0.5757 -0.7768 0.2553
vn -0.5263 -0.3046 0.7938
vn -0.0105 -0.3850 -0.9229
vn -0.8011 0.0808 -0.5930
vn -0.1176 -0.9913 0.0585
vn -0.6088 -0.6858 -0.3988
vn -0.1278 -0.9165 -0.3792
vn -0.2816 -0.1456 0.9484
vn -0.6530 -0.6927 0.3062
vn -0.7100 -0.6949 -0.1143
vn -0.9645 -0.2332 -0.1238
vn -0.6412 -0.2567 0.7231
vn -0.4996 -0.6781 0.5390
vn -0.1578 0.4379 0.8850
vn -0.1199 -0.5964 0.7937
vn -0.1216 -0.5955 0.7941
vn -0.0361 -0.6257 0.7792
vn 0.7492 -0.0635 0.6592
vn 0.4651 -0.0778 -0.8818
vn -0.1743 -0.4730 -0.8636
vn -0.0963 0.7839 -0.6134
vn 0.0894 0.9017 -0.4230
vn 0.3310 0.9094 0.2520
vn -0.4827 0.8625 -0.1519
vn -0.2663 0.8628 0.4298
vn -0.6663 0.6514 -0.3628
vn 0.3977 0.7980 -0.4528
vn -0.2616 0.6695 0.6952
vn 0.6010 0.7975 0.0535
vn -0.9857 0.1671 -0.0216
vn 0.7550 0.1423 -0.6401
vn 0.9711 0.2262 0.0757
vn -0.9575 -0.2868 0.0306
vn 0.0259 0.6076 -0.7938
vn 0.1766 0.5025 0.8464
vn 0.6172 0.4771 0.6256
vn 0.0159 -0.5376 -0.8430
vn -0.6758 -0.7148 -0.1795
vn -0.7490 0.6490 -0.1336
vn -0.7737 0.6299 -0.0681
vn -0.6230 0.7230 0.2987
vn -0.9037 0.1025 0.4156
vn -0.4973 0.1595 0.8528
vn -0.1875 -0.5686 0.8009
vn -0.9606 -0.2408 -0.1388
vn 0.2913 -0.7565 -0.5855
vn 0.5916 -0.7617 0.2642
vn 0.6065 -0.7581 0.2397
vn -0.4546 0.8734 0.1746
vn 0.2656 0.9573 -0.1143
vn 0.3316 -0.5242 0.7844
vn -0.4474 0.3107 -0.8386
vn -0.6248 0.5156 -0.5864
vn -0.2709 -0.1734 -0.9469
vn 0.4267 -0.2296 -0.8748
vn -0.1863 0.1144 0.9758
vn -0.4540 -0.0412 0.8901
vn 0.1413 0.0415 0.9891
vn 0.8888 0.1082 0.4454
vn 0.3478 0.1755 0.9210
vn 0.7265 0.4334 0.5333
vn -0.6791 0.1974 0.7070
vn 0.0646 0.5499 0.8327
vn 0.1507 -0.8069 0.5711
vn -0.6608 0.2995 0.6882
vn -0.4695 -0.6888 0.5523
vn 0.8896 -0.2701 -0.3684
vn 0.7326 -0.4414 0.5181
vn 0.1776 -0.3474 0.9207
vn -0.3257 -0.1994 0.9242
vn -0.5793 -0.3026 -0.7569
vn 0.4189 -0.6705 -0.6124
vn -0.6631 -0.6893 0.2917
vn -0.3628 0.0609 -0.9299
vn 0.7422 -0.1465 0.6539
vn 0.2995 -0.1493 0.9423
vn 0.2986 -0.1491 0.9427
vn 0.3123 -0.1578 0.9368
vn 0.9335 0.0200 -0.3581
vn 0.9071 -0.4190 0.0412
vn -0.5454 -0.1252 -0.8288
vn -0.6976 0.3508 -0.6247
vn -0.6675 -0.0681 -0.7415
vn -0.6752 -0.0640 -0.7349
vn -0.6756 -0.0639 -0.7345
vn 0.0902 0.9312 -0.3531
vn -0.9351 0.1977 0.2942
vn -0.9888 0.1392 -0.0538
vn -0.4031 0.3619 -0.8406
vn -0.1242 0.6312 0.7656
vn -0.5306 0.2804 0.7999
vn -0.8848 0.4607 -0.0704
vn 0.3633 0.3661 0.8567
vn -0.8689 -0.3931 0.3008
vn 0.6279 -0.4092 -0.6620
vn 0.0829 -0.0246 -0.9963
vn 0.0771 -0.0172 -0.9969
vn 0.1022 -0.0549 -0.9933
vn 0.4361 -0.2547 -0.8631
vn -0.7947 -0.5991 -0.0971
vn 0.2201 -0.7647 -0.6057
vn -0.4998 -0.6132 0.6117
vn -0.7713 0.0371 -0.6354
vn 0.5404 -0.2220 0.8116
vn -0.1251 0.0250 0.9918
vn -0.5101 0.0586 0.8581
vn 0.2464 -0.8658 0.4355
vn -0.7322 -0.6464 0.2146
vn 0.4782 -0.2896 0.8291
vn 0.2824 -0.1382 0.9493
vn 0.9221 -0.0345 -0.3855
vn -0.3430 -0.4896 -0.8016
vn -0.6673 -0.0685 -0.7416
vn 0.0611 0.0081 -0.9981
usemtl CloudMaterial
s 1
f 1//1 2//1 3//1
f 4//2 5//2 6//2
f 7//3 8//3 9//3
f 10//4 7//4 9//4
f 7//5 10//5 1//5
f 1//6 10//6 11//6
f 10//7 12//7 13//7
f 13//8 14//8 15//8
f 16//9 13//9 17//9
f 17//10 15//11 18//12
f 15//11 19//13 18//12
f 19//14 15//14 20//14
f 20//15 21//15 19//15
f 21//16 20//16 22//16
f 23//17 24//17 25//17
f 26//18 24//18 23//18
f 27//19 28//19 29//19
f 28//20 30//20 31//20
f 18//21 31//21 30//21
f 19//22 32//22 31//22
f 33//23 34//23 35//23
f 36//24 33//24 37//24
f 38//25 39//25 40//25
f 9//26 38//26 40//26
f 12//27 9//27 40//27
f 8//28 41//28 38//28
f 38//29 41//29 39//29
f 42//30 43//30 44//30
f 5//31 42//31 44//31
f 45//32 43//32 42//32
f 46//33 44//33 43//33
f 47//34 27//34 29//34
f 48//35 24//35 49//35
f 50//36 48//36 49//36
f 49//37 51//37 52//37
f 53//38 54//38 55//38
f 56//39 57//39 58//39
f 16//40 1//40 11//40
f 59//41 60//41 61//41
f 56//42 59//42 62//42
f 59//43 56//43 60//43
f 63//44 53//44 64//44
f 32//45 65//45 31//45
f 21//46 65//46 19//46
f 21//47 66//47 65//47
f 54//48 53//48 65//48
f 65//49 28//49 31//49
f 35//50 27//50 47//50
f 29//51 53//52 63//53
f 39//54 23//54 25//54
f 12//55 40//55 67//55
f 68//56 14//56 12//56
f 1//57 3//57 7//57
f 4//58 6//58 3//58
f 4//59 42//59 5//59
f 4//60 3//60 69//60
f 42//61 4//61 37//61
f 2//62 69//62 3//62
f 7//63 6//63 8//63
f 45//64 42//64 37//64
f 8//65 5//65 44//65
f 69//66 2//66 36//66
f 9//67 8//67 38//67
f 8//68 44//68 41//68
f 18//69 19//69 31//69
f 9//70 12//70 10//70
f 46//71 70//71 47//71
f 41//72 23//72 39//72
f 12//73 50//73 68//73
f 19//74 65//74 32//74
f 36//75 16//75 17//75
f 34//76 36//76 17//76
f 34//77 33//77 36//77
f 34//78 18//78 30//78
f 27//79 35//79 30//79
f 53//52 29//51 28//80
f 21//81 62//81 66//81
f 58//82 52//82 60//82
f 71//83 60//83 51//83
f 52//84 51//84 60//84
f 4//85 69//85 37//85
f 6//86 5//86 8//86
f 26//87 29//87 63//87
f 14//88 13//88 12//88
f 11//89 13//89 16//89
f 20//90 68//90 22//90
f 12//91 67//91 50//91
f 43//92 72//92 70//92
f 27//93 30//93 28//93
f 46//94 43//94 70//94
f 41//95 44//95 46//95
f 46//96 47//96 23//96
f 41//97 46//97 23//97
f 33//98 45//98 37//98
f 72//99 47//99 70//99
f 61//100 71//100 55//100
f 35//101 34//101 30//101
f 53//102 28//102 65//102
f 67//103 25//103 48//103
f 49//104 24//104 51//104
f 71//105 64//105 55//105
f 64//106 53//106 55//106
f 62//107 57//107 56//107
f 58//108 49//108 52//108
f 54//109 59//109 61//109
f 22//110 68//110 57//110
f 51//111 26//111 71//111
f 26//112 64//113 71//114
f 25//115 40//115 39//115
f 48//116 25//116 24//116
f 14//117 20//117 15//117
f 17//118 13//118 15//118
f 22//119 62//120 21//121
f 3//122 6//122 7//122
f 69//123 36//123 37//123
f 2//124 16//124 36//124
f 11//125 10//125 13//125
f 33//126 35//126 47//126
f 47//127 72//127 33//127
f 18//128 34//128 17//128
f 23//129 47//129 29//129
f 66//130 54//130 65//130
f 50//131 67//131 48//131
f 57//132 50//133 58//134
f 58//135 50//135 49//135
f 62//136 59//136 66//136
f 56//137 58//137 60//137
f 54//138 61//138 55//138
f 16//139 2//139 1//139
f 26//140 23//140 29//140
f 43//141 45//141 72//141
f 33//142 72//142 45//142
f 61//143 60//143 71//143
f 54//144 66//144 59//144
f 51//145 24//145 26//145
f 26//112 63//146 64//113
f 25//147 67//147 40//147
f 14//148 68//148 20//148
f 22//119 57//149 62//120
f 57//132 68//150 50//133
