# Blender v3.1.2 OBJ File: 'untitled.blend'
# www.blender.org
mtllib cloud2.mtl
o Cloud_Mesh.002
v -0.566283 1.523368 -0.640369
v -0.928129 1.559870 -0.213477
v -0.425574 1.953889 -0.429022
v -0.202747 2.166789 0.071953
v 0.386294 1.914982 0.206842
v 0.164503 1.902400 -0.414036
v 0.038823 1.565073 -0.682072
v 0.554219 1.569318 -0.221908
v 0.329137 0.818786 -0.654283
v -0.213576 0.647387 -0.803159
v -0.700529 0.617644 -0.582471
v 0.090623 0.010133 -1.016909
v -0.992704 0.236158 -0.606616
v -0.366817 -0.151964 -0.937369
v -1.288908 -0.139343 -0.486736
v -1.012746 0.737587 -0.144340
v -1.453737 0.239931 -0.089663
v -1.666291 -0.110310 0.289802
v -1.541404 -0.561730 -0.033699
v -1.083538 -0.496596 -0.553724
v -0.966109 -1.115921 -0.237773
v -0.544572 -0.917733 -0.642736
v 0.739162 -0.010718 0.706861
v 0.672763 -0.841610 0.333421
v 0.985227 -0.231600 -0.047201
v 0.365040 -0.768698 0.697932
v -0.710851 -0.134038 1.214036
v -1.123086 -0.567148 1.056990
v -0.296853 -0.325544 1.188785
v -1.401520 -0.103426 0.924974
v -1.513740 -0.577888 0.681443
v -1.492360 -0.718996 0.407838
v -0.862395 0.779371 0.630551
v -1.496220 0.258860 0.568516
v -1.005369 0.250408 1.043464
v -1.024329 0.802623 0.236488
v -0.791030 1.777089 0.489691
v 0.655640 0.896861 -0.251768
v 0.999930 0.122377 -0.015583
v 0.754889 0.125201 -0.657031
v 0.681191 0.807463 0.276229
v -0.027345 1.955017 0.605756
v 0.020365 1.524840 0.852484
v 0.501312 1.562291 0.477397
v -0.549368 1.570606 0.779501
v 0.409025 0.529457 0.756066
v -0.333543 0.203942 1.131734
v 0.703752 -0.890977 -0.271793
v 0.702524 -1.567546 -0.271578
v 0.282592 -0.853342 -0.694520
v 0.654606 -1.786595 0.349096
v 0.536839 -2.056675 -0.207119
v -0.634172 -1.127755 0.773432
v -0.722509 -1.815993 0.450757
v -0.190372 -1.948562 0.752694
v -0.342984 -2.048508 -0.583737
v -0.332669 -1.601712 -0.770243
v 0.249947 -1.785613 -0.700164
v -0.468199 -2.262095 -0.025259
v 0.128205 -2.334399 -0.051586
v -0.308355 -2.259219 0.344874
v -0.779092 -1.796979 -0.350539
v -0.113573 -0.901171 0.890515
v -0.090553 -1.611624 0.860583
v -1.041840 -1.144478 0.405981
v -0.853190 -1.775865 0.125667
v 0.754648 -0.241859 -0.624774
v -0.228871 -0.785626 -0.757254
v -0.896777 1.791108 0.144146
v -0.128932 0.615405 0.901547
v 0.354597 -1.911183 0.661700
v -0.593403 0.845016 0.785969
vn -0.6406 0.4968 -0.5855
vn 0.4198 0.8919 -0.1680
vn 0.6479 0.2249 -0.7277
vn 0.2464 0.0599 -0.9673
vn -0.0784 0.1516 -0.9853
vn -0.4129 0.0030 -0.9108
vn -0.3202 0.1603 -0.9337
vn -0.4377 0.0588 -0.8972
vn -0.6421 0.5056 -0.5763
vn -0.8962 0.0692 -0.4381
vn -0.8964 0.0676 -0.4381
vn -0.8963 0.0691 -0.4380
vn -0.8965 0.0660 -0.4381
vn -0.7025 -0.2813 -0.6538
vn -0.6457 -0.4406 -0.6237
vn -0.4876 -0.4683 -0.7368
vn 0.9016 -0.2352 0.3631
vn 0.6823 -0.3444 0.6449
vn -0.0710 -0.2796 0.9575
vn -0.6756 -0.2039 0.7086
vn -0.9229 0.0209 0.3845
vn -0.9767 -0.2120 0.0330
vn -0.5504 0.6011 0.5795
vn -0.9158 0.1196 0.3834
vn 0.8935 0.2935 -0.3400
vn 0.6670 0.4119 -0.6209
vn 0.4238 0.2636 -0.8665
vn 0.9884 0.1501 -0.0224
vn 0.9105 0.4126 0.0258
vn 0.5207 0.4675 0.7144
vn 0.5818 0.6059 0.5425
vn -0.0719 0.4902 0.8686
vn 0.5996 0.1581 0.7846
vn 0.1130 0.1142 0.9870
vn 0.9987 -0.0018 0.0513
vn 0.7084 -0.0015 -0.7059
vn 0.9446 -0.3255 -0.0419
vn -0.5263 -0.3046 0.7938
vn -0.0105 -0.3850 -0.9229
vn -0.8011 0.0808 -0.5930
vn -0.1176 -0.9913 0.0585
vn -0.6088 -0.6858 -0.3988
vn -0.1278 -0.9165 -0.3792
vn -0.1994 -0.0477 0.9788
vn -0.6530 -0.6927 0.3062
vn -0.7100 -0.6949 -0.1143
vn -0.9645 -0.2332 -0.1238
vn -0.6412 -0.2567 0.7231
vn -0.4996 -0.6781 0.5390
vn -0.0995 0.3389 0.9356
vn -0.0002 -0.4598 0.8880
vn -0.0001 -0.4598 0.8880
vn 0.0005 -0.4599 0.8879
vn 0.9424 -0.0684 0.3275
vn 0.4852 -0.0769 -0.8710
vn -0.0649 -0.2859 -0.9561
vn -0.0927 0.4630 -0.8815
vn 0.0894 0.9017 -0.4230
vn 0.3310 0.9094 0.2520
vn -0.4827 0.8625 -0.1519
vn -0.2663 0.8628 0.4298
vn -0.6663 0.6514 -0.3628
vn 0.6278 0.3272 -0.7062
vn -0.2616 0.6695 0.6952
vn 0.9300 0.3600 0.0740
vn -0.9917 0.1283 0.0040
vn 0.7550 0.1423 -0.6401
vn 0.9743 0.2120 0.0758
vn -0.9575 -0.2868 0.0306
vn 0.1344 0.3722 -0.9184
vn 0.2962 0.3499 0.8887
vn 0.8927 0.2578 0.3697
vn 0.0709 -0.3350 -0.9395
vn -0.6758 -0.7148 -0.1795
vn -0.7490 0.6490 -0.1336
vn -0.7737 0.6299 -0.0681
vn -0.6230 0.7230 0.2987
vn -0.9151 0.1347 0.3800
vn -0.3790 0.1169 0.9180
vn -0.0082 -0.4570 0.8894
vn -0.9606 -0.2408 -0.1388
vn 0.2913 -0.7565 -0.5855
vn 0.5916 -0.7617 0.2642
vn 0.6065 -0.7581 0.2397
vn -0.4546 0.8734 0.1746
vn 0.6985 0.6655 -0.2630
vn 0.4270 -0.3051 0.8512
vn -0.2737 0.3289 -0.9038
vn -0.6248 0.5156 -0.5864
vn -0.2785 -0.1561 -0.9477
vn 0.4283 -0.2310 -0.8736
vn -0.2005 0.0856 0.9759
vn -0.3847 0.0316 0.9225
vn 0.2624 0.0090 0.9649
vn 0.8516 0.0643 0.5203
vn 0.3906 0.1561 0.9072
vn 0.6987 0.3713 0.6115
vn -0.7050 0.1483 0.6935
vn 0.0195 0.4807 0.8767
vn 0.1507 -0.8069 0.5711
vn -0.6100 0.4690 0.6387
vn -0.4695 -0.6888 0.5523
vn 0.8977 -0.2627 -0.3537
vn 0.9973 -0.0180 0.0706
vn 0.1776 -0.3474 0.9207
vn -0.3257 -0.1994 0.9242
vn -0.5793 -0.3026 -0.7569
vn 0.7281 -0.3261 -0.6029
vn -0.6631 -0.6893 0.2917
vn -0.3628 0.0609 -0.9299
vn 0.7268 -0.0284 0.6862
vn 0.3883 -0.0322 0.9210
vn 0.3813 -0.0278 0.9240
vn 0.3892 -0.0328 0.9206
vn 0.9341 -0.0069 -0.3569
vn 0.9066 -0.4143 0.0802
vn -0.4384 -0.0843 -0.8948
vn -0.6976 0.3508 -0.6247
vn -0.6675 -0.0681 -0.7415
vn -0.6752 -0.0640 -0.7349
vn -0.6756 -0.0639 -0.7345
vn 0.0728 0.6037 -0.7939
vn -0.9438 0.1493 0.2949
vn -0.9940 0.0983 -0.0470
vn -0.4031 0.3619 -0.8406
vn -0.0592 0.6241 0.7791
vn -0.5282 0.2272 0.8182
vn -0.8848 0.4607 -0.0704
vn 0.3869 0.1252 0.9136
vn -0.8689 -0.3931 0.3008
vn 0.6279 -0.4092 -0.6620
vn 0.1215 0.0005 -0.9926
vn 0.1201 0.0016 -0.9928
vn 0.1200 0.0018 -0.9928
vn 0.6925 -0.0199 -0.7211
vn -0.7947 -0.5991 -0.0971
vn 0.2201 -0.7647 -0.6057
vn -0.4998 -0.6132 0.6117
vn -0.7616 0.0239 -0.6476
vn 0.4686 -0.2413 0.8498
vn -0.1257 0.0165 0.9919
vn -0.5069 0.0384 0.8611
vn 0.2464 -0.8658 0.4355
vn -0.7322 -0.6464 0.2146
vn 0.7637 -0.0040 0.6455
vn 0.3795 -0.0267 0.9248
vn 0.9284 -0.0331 -0.3701
vn -0.3212 -0.3230 -0.8902
vn -0.6673 -0.0685 -0.7416
vn 0.1218 0.0003 -0.9926
usemtl CloudMaterial
s 1
f 1//1 2//1 3//1
f 4//2 5//2 6//2
f 7//3 8//3 9//3
f 10//4 7//4 9//4
f 7//5 10//5 1//5
f 1//6 10//6 11//6
f 10//7 12//7 13//7
f 13//8 14//8 15//8
f 16//9 13//9 17//9
f 17//10 15//11 18//12
f 15//11 19//13 18//12
f 19//14 15//14 20//14
f 20//15 21//15 19//15
f 21//16 20//16 22//16
f 23//17 24//17 25//17
f 26//18 24//18 23//18
f 27//19 28//19 29//19
f 28//20 30//20 31//20
f 18//21 31//21 30//21
f 19//22 32//22 31//22
f 33//23 34//23 35//23
f 36//24 33//24 37//24
f 38//25 39//25 40//25
f 9//26 38//26 40//26
f 12//27 9//27 40//27
f 8//28 41//28 38//28
f 38//29 41//29 39//29
f 42//30 43//30 44//30
f 5//31 42//31 44//31
f 45//32 43//32 42//32
f 46//33 44//33 43//33
f 47//34 27//34 29//34
f 48//35 24//35 49//35
f 50//36 48//36 49//36
f 49//37 51//37 52//37
f 53//38 54//38 55//38
f 56//39 57//39 58//39
f 16//40 1//40 11//40
f 59//41 60//41 61//41
f 56//42 59//42 62//42
f 59//43 56//43 60//43
f 63//44 53//44 64//44
f 32//45 65//45 31//45
f 21//46 65//46 19//46
f 21//47 66//47 65//47
f 54//48 53//48 65//48
f 65//49 28//49 31//49
f 35//50 27//50 47//50
f 29//51 53//52 63//53
f 39//54 23//54 25//54
f 12//55 40//55 67//55
f 68//56 14//56 12//56
f 1//57 3//57 7//57
f 4//58 6//58 3//58
f 4//59 42//59 5//59
f 4//60 3//60 69//60
f 42//61 4//61 37//61
f 2//62 69//62 3//62
f 7//63 6//63 8//63
f 45//64 42//64 37//64
f 8//65 5//65 44//65
f 69//66 2//66 36//66
f 9//67 8//67 38//67
f 8//68 44//68 41//68
f 18//69 19//69 31//69
f 9//70 12//70 10//70
f 46//71 70//71 47//71
f 41//72 23//72 39//72
f 12//73 50//73 68//73
f 19//74 65//74 32//74
f 36//75 16//75 17//75
f 34//76 36//76 17//76
f 34//77 33//77 36//77
f 34//78 18//78 30//78
f 27//79 35//79 30//79
f 53//52 29//51 28//80
f 21//81 62//81 66//81
f 58//82 52//82 60//82
f 71//83 60//83 51//83
f 52//84 51//84 60//84
f 4//85 69//85 37//85
f 6//86 5//86 8//86
f 26//87 29//87 63//87
f 14//88 13//88 12//88
f 11//89 13//89 16//89
f 20//90 68//90 22//90
f 12//91 67//91 50//91
f 43//92 72//92 70//92
f 27//93 30//93 28//93
f 46//94 43//94 70//94
f 41//95 44//95 46//95
f 46//96 47//96 23//96
f 41//97 46//97 23//97
f 33//98 45//98 37//98
f 72//99 47//99 70//99
f 61//100 71//100 55//100
f 35//101 34//101 30//101
f 53//102 28//102 65//102
f 67//103 25//103 48//103
f 49//104 24//104 51//104
f 71//105 64//105 55//105
f 64//106 53//106 55//106
f 62//107 57//107 56//107
f 58//108 49//108 52//108
f 54//109 59//109 61//109
f 22//110 68//110 57//110
f 51//111 26//111 71//111
f 26//112 64//113 71//114
f 25//115 40//115 39//115
f 48//116 25//116 24//116
f 14//117 20//117 15//117
f 17//118 13//118 15//118
f 22//119 62//120 21//121
f 3//122 6//122 7//122
f 69//123 36//123 37//123
f 2//124 16//124 36//124
f 11//125 10//125 13//125
f 33//126 35//126 47//126
f 47//127 72//127 33//127
f 18//128 34//128 17//128
f 23//129 47//129 29//129
f 66//130 54//130 65//130
f 50//131 67//131 48//131
f 57//132 50//133 58//134
f 58//135 50//135 49//135
f 62//136 59//136 66//136
f 56//137 58//137 60//137
f 54//138 61//138 55//138
f 16//139 2//139 1//139
f 26//140 23//140 29//140
f 43//141 45//141 72//141
f 33//142 72//142 45//142
f 61//143 60//143 71//143
f 54//144 66//144 59//144
f 51//145 24//145 26//145
f 26//112 63//146 64//113
f 25//147 67//147 40//147
f 14//148 68//148 20//148
f 22//119 57//149 62//120
f 57//132 68//150 50//133
